<svg id="SvgjsSvg1025" width="288" height="288" xmlns="http://www.w3.org/2000/svg" version="1.1" xmlns:xlink="http://www.w3.org/1999/xlink" xmlns:svgjs="http://svgjs.com/svgjs"><defs id="SvgjsDefs1026"></defs><g id="SvgjsG1027"><svg xmlns="http://www.w3.org/2000/svg" width="288" height="288" fill="none" viewBox="0 0 27 33"><path fill="#95c063" d="M26.5992 4.61814L25.5093 4.17219L26.1206 2.92193C26.2834 2.5891 26.2632 2.2029 26.0668 1.88875C25.8704 1.57461 25.5318 1.38712 25.161 1.38712H24.7376L24.3649 0.607236C24.1913 0.243785 23.833 0.0112391 23.4299 0.000346529C23.0282 -0.00977258 22.6566 0.202342 22.4635 0.555931L22.1462 1.13697L21.2492 0.60672C20.9199 0.412008 20.5089 0.408656 20.1763 0.598019C19.8438 0.787382 19.6373 1.14239 19.6373 1.52466V1.9514C19.2969 2.01476 19.0046 2.24028 18.8593 2.56596C18.6824 2.9628 18.7621 3.42235 19.0624 3.73662L20.0117 4.72984C20.0035 4.75704 19.9952 4.78417 19.9878 4.81176L19.3753 7.08385C18.9814 8.54513 18.1761 9.85076 17.0463 10.8594C16.7806 11.0967 16.7578 11.5042 16.9953 11.7695C17.2328 12.0349 17.6407 12.0578 17.9065 11.8205C19.2235 10.6446 20.1623 9.12257 20.6215 7.41895L21.234 5.14691C21.4213 4.45192 22.0554 3.96652 22.776 3.96652C23.3265 3.96652 23.8476 4.2574 24.1361 4.72571L24.2003 4.82981C24.1201 4.93718 24.0727 5.07028 24.0727 5.21453V5.94574C24.0727 6.30185 23.7826 6.59163 23.426 6.59163C23.2129 6.59163 23.0135 6.69675 22.8933 6.87245C22.773 7.04815 22.7474 7.27186 22.8247 7.47019L23.1938 8.4159C24.2342 11.0813 24.7617 13.8833 24.7617 16.744C24.7617 19.0679 23.4954 21.2075 21.4569 22.3279C21.3235 22.4013 21.2203 22.5194 21.1657 22.6614L20.994 23.1076C20.1228 25.372 17.9057 26.8934 15.477 26.8934H13.4365C13.4237 26.893 13.411 26.8922 13.3981 26.8924C11.3727 26.8725 9.73093 25.2213 9.73093 23.1937C9.73093 22.8377 9.44196 22.5491 9.08562 22.5491H7.14778C5.81767 22.5491 4.7355 21.4683 4.7355 20.1398C4.7355 19.7838 4.44653 19.4952 4.0902 19.4952C2.54637 19.4952 1.29035 18.2408 1.29035 16.6988V15.4939H5.33202C7.96163 15.4939 10.5644 15.087 13.0682 14.2844C13.4075 14.1756 13.5943 13.8127 13.4854 13.4738C13.3766 13.1349 13.0133 12.9482 12.6738 13.057C10.2978 13.8187 7.8276 14.2048 5.33208 14.2048H0.645304C0.288967 14.2048 0 14.4934 0 14.8493V16.6989C0 18.7494 1.52021 20.4519 3.49406 20.7411C3.78239 22.4956 5.31111 23.8383 7.14803 23.8383H8.48207C8.77878 26.1249 10.6317 27.9303 12.9416 28.1579L13.9092 31.0382C13.2651 31.1324 12.7684 31.6864 12.7684 32.3555C12.7684 32.7114 13.0573 33 13.4137 33C13.77 33 14.059 32.7114 14.059 32.3555C14.059 32.3313 14.0787 32.3116 14.1029 32.3116H14.7962C14.7979 32.3116 14.7994 32.3118 14.801 32.3118C14.8026 32.3118 14.8042 32.3116 14.8057 32.3116H15.463C15.4872 32.3116 15.507 32.3313 15.507 32.3555C15.507 32.7114 15.7959 33 16.1523 33C16.5086 33 16.7976 32.7114 16.7976 32.3555C16.7976 32.3407 16.7958 32.3263 16.7954 32.3116H16.9998C17.0014 32.3116 17.0029 32.3118 17.0045 32.3118C17.0061 32.3118 17.0077 32.3116 17.0093 32.3116H17.6666C17.6908 32.3116 17.7105 32.3313 17.7105 32.3555C17.7105 32.7114 17.9995 33 18.3558 33C18.7121 33 19.0011 32.7114 19.0011 32.3555C19.0011 31.6205 18.4025 31.0226 17.6666 31.0226H17.4686L16.4905 28.1108C17.5864 27.9563 18.6308 27.5524 19.5548 26.9184C20.7601 26.0913 21.6745 24.9335 22.199 23.5701L22.2882 23.3384C24.6164 21.9626 26.0525 19.4579 26.0525 16.7441C26.0525 13.7226 25.4954 10.7631 24.3966 7.94785L24.2909 7.67708C24.9263 7.35926 25.3635 6.70255 25.3635 5.94581V5.85912H26.3546C26.6629 5.85912 26.9282 5.64127 26.9878 5.33911C27.0473 5.03689 26.8845 4.73487 26.5992 4.61814ZM15.8039 31.0225C15.7548 31.0225 15.7071 31.0285 15.6611 31.0389C15.5964 31.0292 15.5305 31.0225 15.463 31.0225H15.2652L14.3112 28.1825H15.1534L16.1074 31.0225H15.8039ZM22.7761 2.67746C21.9683 2.67746 21.2208 3.01507 20.6885 3.57091L20.2758 3.13927C20.3961 3.08842 20.5071 3.01513 20.6039 2.92129C20.8127 2.71865 20.9279 2.44685 20.9279 2.15598V1.91466L21.6873 2.36358C21.9352 2.51014 22.2368 2.55036 22.5146 2.47405C22.7924 2.39767 23.0308 2.20902 23.1689 1.95636L23.388 1.55521L23.6334 2.06896C23.8097 2.43776 24.1881 2.67611 24.5973 2.67611H24.8047L24.517 3.26444C24.0212 2.89125 23.4096 2.67746 22.7761 2.67746Z" class="color535776 svgShape"></path><path fill="#95c063" d="M20.3722 19.8293C20.0245 19.9955 19.8978 20.3749 20.0892 20.6768 20.22 20.8833 20.4657 21 20.7192 21 20.8363 21 20.9551 20.9751 21.065 20.9226 22.869 20.0604 23.9937 18.414 24 16.6258 24.0012 16.2812 23.6806 16.0011 23.2838 16 22.89 15.9994 22.5643 16.2774 22.5632 16.622 22.5584 17.9568 21.7188 19.1858 20.3722 19.8293zM7.64401 17.3933C7.43484 17.3933 7.23875 17.5003 7.11807 17.6803 6.99738 17.8602 6.96712 18.0906 7.03699 18.2983 7.75594 20.436 9.63805 21.8998 11.7717 22.0115 12.0548 23.1543 13.0429 24 14.2151 24 16.1068 24 17.8203 22.8209 18.5806 20.9961L18.598 20.9546C18.8648 20.3143 19 19.6351 19 18.936V15.6784C19 15.4461 18.8872 15.2299 18.7009 15.1055 18.5147 14.9811 18.2809 14.9657 18.0814 15.0647 15.0136 16.5881 11.5994 17.3933 8.20788 17.3933H7.64401V17.3933zM17.712 16.7237V18.9361C17.712 19.4463 17.6133 19.9421 17.4186 20.4094L17.4013 20.4509C16.8464 21.7827 15.5957 22.6432 14.2151 22.6432 13.5329 22.6432 12.9781 22.0586 12.9781 21.3401 12.9781 20.9654 12.6897 20.6617 12.3341 20.6617H12.0346C10.6619 20.6617 9.40435 19.9207 8.6742 18.7454 11.7653 18.6819 14.8611 17.9883 17.712 16.7237zM22.4414 14.0033C22.1678 14.0347 21.9716 14.2788 22.0034 14.5486 22.0036 14.55 22.0042 14.5555 22.0044 14.5568L22.0057 14.5676C22.0366 14.817 22.2517 15 22.5004 15 22.5205 15 22.5409 14.9988 22.5613 14.9964 22.8348 14.9635 23.0296 14.7183 22.9963 14.4486L22.9948 14.4367 22.9946 14.4352C22.9628 14.1654 22.7152 13.972 22.4414 14.0033zM15.5 13C15.6315 13 15.7605 12.9465 15.8535 12.8536 15.9465 12.7601 16 12.6317 16 12.4998 16 12.3683 15.9465 12.2399 15.8535 12.1464 15.7605 12.0535 15.6315 12 15.5 12 15.3685 12 15.2395 12.0535 15.1465 12.1464 15.0535 12.2399 15 12.3683 15 12.4998 15 12.6317 15.0534 12.7601 15.1465 12.8536 15.2395 12.9466 15.3685 13 15.5 13z" class="color535776 svgShape"></path></svg></g></svg>