<?xml version="1.0" standalone="no"?>
<!DOCTYPE svg PUBLIC "-//W3C//DTD SVG 1.1//EN" "http://www.w3.org/Graphics/SVG/1.1/DTD/svg11.dtd" >
<svg xmlns="http://www.w3.org/2000/svg">
<metadata>Generated by IcoMoon</metadata>
<defs>
<font id="icomoon" horiz-adv-x="1024">
<font-face units-per-em="1024" ascent="960" descent="-64" />
<missing-glyph horiz-adv-x="1024" />
<glyph unicode="&#x20;" horiz-adv-x="512" d="" />
<glyph unicode="&#xe900;" glyph-name="Notification" d="M921.052 145.094c-3.171 1.952-27.030 17.824-50.92 65.833-43.872 88.166-53.081 212.361-53.081 301.022 0 0.386-0.007 0.768-0.024 1.154-0.478 117.177-74.373 218.189-180.118 263.511v69.314c0 62.9-53.804 114.072-119.938 114.072h-9.94c-66.133 0-119.938-51.172-119.938-114.072v-69.31c-106.099-45.468-180.143-146.996-180.143-264.669 0-88.661-9.208-212.855-53.081-301.022-23.888-48.009-47.746-63.877-50.918-65.833-13.358-5.871-19.945-19.429-16.872-33.171 3.103-13.879 16.764-23.446 31.683-23.446h231.583c1.293-84.282 73.738-152.477 162.655-152.477s161.362 68.195 162.656 152.477h231.584c14.916 0 28.58 9.568 31.683 23.446 3.069 13.742-3.516 27.303-16.872 33.171zM450.285 845.928c0 29.762 25.457 53.974 56.75 53.974h9.94c31.29 0 56.747-24.212 56.747-53.974v-49.834c-19.944 3.914-40.588 5.974-61.727 5.974-21.135 0-41.772-2.058-61.706-5.968v49.828h-0.003zM512.002-3.901c-54.074 0-98.183 41.233-99.466 92.375h198.93c-1.28-51.139-45.387-92.375-99.465-92.375zM639.223 148.576c-0.007 0-449.455 0-449.455 0 5.466 8.090 11.028 17.248 16.558 27.597 42.345 79.285 63.817 192.256 63.817 335.776 0 126.835 108.494 230.021 241.849 230.021s241.848-103.186 241.848-230.12c0-0.369 0.007-0.737 0.024-1.106 0.119-142.944 21.589-255.508 63.816-334.572 5.53-10.353 11.093-19.507 16.558-27.597h-195.014z" />
<glyph unicode="&#xe901;" glyph-name="About-Us" horiz-adv-x="1138" d="M659.91 197.688c-5.689 5.689-22.756 17.067-11.378 85.333 0 0 0 5.689 5.689 17.067 5.689 22.756 11.378 56.889 22.756 102.4s0 85.333-22.756 119.467c-22.756 28.444-51.2 45.512-91.024 45.512-56.889 5.689-119.464-28.445-136.531-62.578-11.378-17.067-5.689-28.445 0-34.134s11.375-11.377 11.375-17.066c5.689-5.689 22.758-17.067 5.691-85.334 0-5.689-22.757-108.089-22.757-125.156-5.689-45.511 0.002-85.333 22.757-119.467 39.822-45.511 96.711-45.511 102.399-45.511 56.89 0 108.090 34.133 125.157 68.267 5.689 17.067 5.689 28.444 0 34.133 0 11.378-5.689 17.067-11.378 17.067zM625.777 419.555c-11.378-45.511-17.067-79.644-22.756-102.4-5.689-11.378-5.689-17.067-5.689-17.067-11.378-79.644 0-113.778 17.067-130.844-5.689-5.689-11.378-11.378-22.756-17.067-17.067-11.378-39.822-11.378-51.2-11.378-22.756 0-45.511 11.378-56.889 22.756-11.378 17.067-17.067 45.511-11.378 73.956 5.689 17.067 22.753 119.467 22.753 125.156 17.067 79.644 0.001 113.778-17.066 130.844 5.689 5.689 11.379 11.378 22.757 11.378 17.067 11.378 39.82 11.378 51.198 11.378 22.758 0 45.514-11.378 56.892-28.444 17.067-11.378 22.756-39.822 17.067-68.267zM682.666 766.577c-22.756 22.756-56.889 39.822-91.022 39.822-68.269 0-125.157-45.511-130.846-102.4-5.689-22.756 5.69-51.2 22.757-68.267 22.756-22.756 56.888-39.822 91.022-39.822 68.267 0 125.156 45.51 130.844 102.399 5.689 28.444-5.689 51.201-22.756 68.268zM654.221 703.999c-5.689-28.444-39.822-51.199-79.644-51.199-22.757 0-39.825 5.688-51.203 17.066-5.689 5.689-11.375 17.067-11.375 28.444 5.689 28.444 39.82 51.201 79.644 51.201 22.756 0 39.822-5.689 51.2-22.756 5.689 0 11.378-11.377 11.378-22.755zM1001.243 146.488c73.956 85.333 113.778 199.111 113.778 307.201 0 136.533-56.889 261.688-164.978 358.399-102.4 96.711-244.622 147.912-392.534 147.912s-284.446-51.2-392.535-147.912c-108.089-96.711-164.976-221.866-164.976-358.399s56.887-261.689 164.976-358.401c102.4-96.711 244.624-147.911 392.535-147.911 91.023 0 182.045 22.756 261.689 62.578l193.422-73.956c5.689 0 5.689 0 11.378 0s11.378 0 17.067 5.689c5.689 5.689 11.378 17.067 5.689 28.444l-45.511 176.356zM830.577 61.155c-5.689 0-17.067 0-22.756 0-73.956-39.822-164.978-62.578-250.312-62.578-278.756 0-500.622 204.8-500.622 455.112s227.555 455.111 500.622 455.111c273.067 0 500.623-204.8 500.623-455.111 0-102.401-39.822-204.801-108.089-284.445-5.689-5.689-5.689-17.067-5.689-22.756l39.822-142.222-153.6 56.889z" />
<glyph unicode="&#xe902;" glyph-name="Add" d="M965.484 389.486h-394.971v-394.971c0-32.183-26.331-58.514-58.514-58.514s-58.514 26.331-58.514 58.514v394.971h-394.971c-32.183 0-58.514 26.331-58.514 58.514s26.331 58.514 58.514 58.514h394.971v394.971c0 32.183 26.331 58.514 58.514 58.514s58.514-26.331 58.514-58.514v-394.971h394.971c32.183 0 58.514-26.331 58.514-58.514s-26.331-58.514-58.514-58.514z" />
<glyph unicode="&#xe903;" glyph-name="Admin" horiz-adv-x="872" d="M671.289 322.973c-30.341 0-60.681-7.585-87.23-18.963s-49.304-30.341-68.267-53.096c-3.793 0-3.793 3.793-7.585 3.793l-83.437 30.341v34.133c0 3.793 0 3.793 0 7.585s-3.793 3.793-3.793 3.793l-49.304 18.963v7.585c37.926 15.17 72.059 41.719 94.815 75.852s37.926 72.059 37.926 113.778c15.17 3.793 26.548 15.17 34.133 30.341s11.378 30.342 7.585 45.513c-3.793 7.585-7.585 15.169-11.378 22.754-7.585 7.585-15.17 11.379-22.756 15.172l3.793 56.889c3.793 45.511-7.585 94.815-34.133 132.741-22.756 41.719-60.681 72.059-102.4 91.022s-91.022 22.755-136.533 15.17c-45.511-11.378-87.23-34.133-121.363-68.266-22.756-22.756-37.926-49.304-49.304-79.645s-15.17-60.681-11.378-91.022l3.793-56.889c-7.585-3.793-15.17-7.586-22.756-15.172s-11.378-15.169-11.378-22.754c-3.793-15.17 0-30.341 7.585-45.513s18.963-22.756 34.133-30.341c0-41.719 15.17-79.644 37.926-113.778s56.889-60.681 94.815-75.852v-7.585l-49.304-18.963c-3.793 0-3.793-3.793-3.793-3.793 0-3.793-3.793-3.793-3.793-7.585v-34.133l-83.437-30.341c-18.963-7.585-34.133-22.756-45.511-41.719s-18.963-37.926-18.963-56.889v-151.704c0-3.793 0-7.585 3.793-7.585s3.793-3.793 7.585-3.793h208.593l60.681-49.304c3.793 0 3.793-3.793 7.585-3.793s3.793 0 7.585 3.793l60.681 49.304h174.459c18.963-18.963 37.926-30.341 64.474-41.719 22.756-11.378 49.304-15.17 75.852-15.17 53.096 0 102.4 18.963 140.326 56.889s56.889 87.23 56.889 136.533c0 53.096-18.963 102.4-56.889 136.533s-87.23 56.889-140.326 56.889zM360.296 11.981l-34.133 174.459 15.17-7.585c3.793 0 7.585-3.793 7.585 0 3.793 0 7.585 3.793 7.585 3.793l56.889 75.852 60.681-22.756c-11.378-11.378-22.756-22.756-30.341-37.926s-11.378-30.341-15.17-45.511v-140.326h-68.267zM322.37 224.366l-11.378 7.585 91.022 60.681v-15.17l-53.096-68.267-26.548 15.17zM458.904 152.307c3.793 30.341 18.963 56.889 45.511 72.059-18.963-30.341-26.548-64.474-26.548-98.607 0-41.719 15.17-79.644 37.926-113.778h-56.889v140.326zM386.844 311.596l-18.963-11.378v18.963l18.963-7.585zM136.533 869.108c30.341 30.341 64.474 53.095 106.193 60.68s83.437 3.793 121.363-11.377c37.926-15.17 72.059-45.511 91.022-79.644 22.756-34.133 30.341-75.852 30.341-117.571l-3.793-68.266c0-3.793 0-3.793-3.793-3.793l-26.548 109.985c0 0 0 0 0 3.793-7.585 15.17-18.963 30.341-34.133 41.719s-34.133 15.17-49.304 18.963h-18.963c-3.793 0-3.793 0-7.585 0l-3.793-3.793c-18.963-26.548-45.511-49.304-75.852-60.682-30.341-15.17-64.474-18.963-94.815-15.17l-34.133 3.793c-3.793 0-3.793 0-7.585 0s-3.793-3.793-7.585-3.793c-3.793 0-3.793-3.792-3.793-7.584s-3.793-3.793-3.793-7.586l-7.585-75.852c-3.793 0-7.585 3.793-15.17 3.793 0 0 0 0 0 3.793l-3.793 68.266c-3.793 26.548 0 56.889 11.378 79.645 11.378 15.17 22.756 37.926 41.719 60.682zM94.815 554.322c0 3.793 0 7.585-3.793 7.585-3.793 3.793-3.793 3.793-7.585 3.793s-11.378 3.793-15.17 7.585c-3.793 3.793-7.585 7.587-11.378 11.379s-3.793 7.585-7.585 15.17c0 3.793 0 11.377 0 15.17s3.793 7.585 7.585 11.377c3.793 3.793 7.585 3.793 11.378 7.586 3.793-3.793 7.585-7.586 11.378-7.586 34.133-15.17 37.926-11.377 41.719-7.584l3.793 3.793v3.791l7.585 83.437 30.341-3.793c34.133-3.793 72.059 0 106.193 15.17s60.681 37.926 83.437 64.474h11.378c15.17 0 26.548-3.792 37.926-11.377s18.963-18.964 26.548-30.341l30.341-128.948c0-3.793 0-3.793 3.793-3.793l3.793-3.793c3.793 0 3.793 0 7.585 0s3.793 0 7.585 3.793l18.963 15.17c3.793 3.793 3.793 3.793 3.793 7.586 3.793 0 7.585-3.793 11.378-7.586s3.793-7.585 3.793-11.377c0-3.793 0-7.586 0-7.586 0-7.585-3.793-18.962-7.585-26.547-7.585-7.586-15.17-11.379-22.756-15.172-3.793 0-3.793-3.793-7.585-3.793 0-3.793-3.793-3.793-3.793-7.585 0-26.548-3.793-49.304-15.17-72.059s-22.756-45.511-41.719-60.681c-18.963-15.17-37.926-30.341-60.681-41.719s-49.304-15.17-72.059-15.17c-22.756 0-49.304 3.793-72.059 15.17s-45.511 22.756-60.681 41.719c-18.963 18.963-30.341 37.926-41.719 60.681s-18.963 45.511-18.963 72.059zM288.237 338.144c18.963 0 37.926 3.793 56.889 7.585v-60.681l-56.889-37.926-56.889 37.926v60.681c18.963-3.793 37.926-7.585 56.889-7.585zM144.119 11.981v140.326c0 15.17-7.585 30.341-15.17 45.511s-18.963 26.548-30.341 37.926l60.681 22.756 56.889-75.852c3.793-3.793 3.793-3.793 7.585-3.793s7.585 0 7.585 0l18.963 11.378-34.133-178.252h-72.059zM174.459 292.633l91.022-60.681-37.926-22.756-53.096 68.267v15.17zM208.593 300.218l-18.963 11.378 18.963 7.585v-18.963zM22.756 152.307c3.793 30.341 22.756 56.889 49.304 75.852 26.548-15.17 45.511-41.719 49.304-75.852v-140.326h-98.607v140.326zM288.237-33.53l-49.304 37.926 37.926 208.593 7.585 3.793 11.378-7.585 37.926-204.8-45.511-37.926zM671.289-41.115c-34.133 0-68.267 11.378-94.815 30.341s-49.304 45.511-64.474 75.852c-11.378 30.341-15.17 64.474-11.378 98.607 7.585 34.133 22.756 64.474 45.511 87.23s53.096 41.719 87.23 45.511c34.133 7.585 68.267 3.793 98.607-11.378 30.341-11.378 56.889-34.133 75.852-60.681s30.341-60.681 30.341-94.815c0-45.511-18.963-87.23-49.304-121.363-26.548-34.133-72.059-49.304-117.57-49.304zM731.97 194.025l-98.607-83.437-49.304 41.719c0 0-3.793 0-3.793 3.793h-7.585c0 0-3.793 0-3.793-3.793l-3.793-3.793v-7.585c0 0 0-3.793 3.793-3.793l60.681-49.304c3.793-3.793 3.793-3.793 7.585-3.793s7.585 0 7.585 3.793l106.193 91.022 3.793 3.793v7.585c0 0 0 3.793-3.793 3.793 0 0-3.793 0-3.793 3.793h-7.585c-3.793 0-3.793-3.793-7.585-3.793z" />
<glyph unicode="&#xe904;" glyph-name="AirSmall" horiz-adv-x="1178" d="M747.516-58.88c-97.28 0-179.2 81.92-179.2 179.2 0 10.24 10.24 20.48 20.48 20.48 15.36 0 20.48-10.24 20.48-20.48 0-71.68 61.44-133.12 133.12-133.12 76.8 0 133.12 61.44 133.12 133.12s-61.44 133.12-133.12 133.12h-716.801c-10.24 0-20.481 10.24-20.481 20.48s10.241 20.48 20.481 20.48h716.801c97.28 0 179.2-81.92 179.2-179.2s-76.8-174.080-174.080-174.080zM947.196 453.121h-921.601c-15.36 0-20.481 10.239-20.481 20.479s10.241 20.481 20.481 20.481h921.601c76.8 0 138.235 61.439 138.235 133.119s-61.435 133.121-138.235 133.121c-76.8 0-138.245-61.441-138.245-133.121 0-10.24-10.235-20.479-20.475-20.479s-25.6 10.239-25.6 20.479c0 97.28 81.92 179.2 184.32 179.2s184.32-81.92 184.32-179.2c0-92.16-81.92-168.959-184.32-174.079 5.12 0 5.12 0 0 0zM481.276 606.721h-455.681c-15.36 0-25.6 10.239-25.6 20.479s10.24 20.481 25.6 20.481h455.681c76.8 0 138.24 61.439 138.24 133.119s-61.44 133.12-138.24 133.12c-76.799 0-138.243-61.44-138.243-133.12 0-10.24-10.24-20.479-25.6-20.479s-25.6 10.239-25.6 20.479c0 97.28 81.919 179.2 184.318 179.2s189.445-81.92 189.445-179.2c5.12-92.16-76.8-168.959-184.32-174.079 5.12 0 5.12 0 0 0z" />
<glyph unicode="&#xe905;" glyph-name="AlertDownArrow" horiz-adv-x="731" d="M720.457 268.8c3.657 3.657 7.314 7.314 7.314 10.971 3.657 3.657 3.657 10.971 3.657 14.629s0 10.971-3.657 14.629c-3.657 3.657-3.657 7.314-7.314 10.971s-7.314 7.314-10.971 7.314c-3.657 3.657-10.971 3.657-14.629 3.657s-10.971 0-14.629-3.657c-3.657-3.657-7.314-3.657-10.971-7.314l-266.971-263.314v866.743c0 3.657 0 10.971-3.657 14.628s-3.657 7.314-7.314 10.972c-3.657 3.657-7.314 7.314-10.971 7.314s-10.971 3.657-14.629 3.657c-10.971 0-18.286-3.657-25.6-10.972s-10.971-14.628-10.971-25.6v-863.086l-266.971 263.314c-7.314 7.314-14.629 10.971-25.6 10.971s-18.286-3.657-25.6-10.971c-3.657-3.657-7.315-7.314-7.315-10.971s-3.656-10.971-3.656-14.629c0-3.657-0.001-10.971 3.656-14.629s3.658-7.314 7.315-10.971l329.143-321.829c3.657-3.657 7.314-7.314 10.971-7.314s10.972-3.657 14.629-3.657c3.657 0 10.971 0 14.629 3.657s7.314 3.657 10.971 7.314l329.143 318.171z" />
<glyph unicode="&#xe906;" glyph-name="AlertDownGraph" horiz-adv-x="1755" d="M1692.031 349.179l-4.876 4.876-112.152 73.143c-14.629 9.752-29.262 4.876-39.014-9.752-4.876-4.876-4.876-9.752-4.876-14.629v-53.638h-97.524l-219.429 321.829c-9.752 14.629-29.252 14.628-39.005 4.876-4.876 0-4.881-4.876-4.881-4.876l-312.071-458.362-321.833 731.429c-4.876 9.752-14.629 19.505-29.257 14.629-9.752 0-19.505-4.876-24.381-19.504l-360.837-902.096h-121.905v-53.638h141.411c9.752 0 19.505 4.876 24.381 19.505l346.208 858.21 312.076-716.8c4.876-14.629 24.386-19.505 39.014-14.629 4.876 0 9.748 4.876 14.624 9.752l316.952 468.114 204.805-297.448c4.876-9.752 14.629-14.629 24.381-14.629h112.148v-53.638c0-14.629 14.633-29.257 29.262-29.257 4.876 0 14.624 0 19.5 4.876l112.157 97.524c0 4.876 4.876 19.505-4.876 34.133zM1584.75 295.541v53.638l39.014-24.381-39.014-29.257z" />
<glyph unicode="&#xe907;" glyph-name="AlertDownTime" d="M512 960c-283.927 0-512-228.073-512-512s228.073-512 512-512c283.927 0 512 228.073 512 512s-228.073 512-512 512zM512 43.055c-223.418 0-404.945 181.527-404.945 404.945s181.527 404.945 404.945 404.945c223.418 0 404.945-181.527 404.945-404.945s-181.527-404.945-404.945-404.945zM744.727 424.727h-176.873c-4.655 9.309-13.964 18.618-27.927 27.927v228.073c0 23.273-18.618 41.891-41.891 41.891s-41.891-18.618-41.891-41.891v-232.727c-23.273-13.964-37.236-41.891-37.236-69.818 0-46.545 32.582-83.782 79.127-83.782 27.927 0 51.2 13.964 65.164 37.236h176.873c23.273 0 41.891 18.618 41.891 41.891 0 27.927-18.618 51.2-37.236 51.2z" />
<glyph unicode="&#xe908;" glyph-name="Archive" d="M940.8 960h-889.6c-25.6 0-51.2-25.6-51.2-51.2v-230.399c0-6.4 6.4-19.201 19.2-19.201h32v-646.4c0-6.4 6.4-19.2 19.2-19.2h857.6c6.4 0 19.2 6.4 19.2 19.2v646.4h32c6.4 0 19.2 6.401 19.2 19.201v230.399c-6.4 25.6-25.6 51.2-57.6 51.2zM908.8 32h-825.6v51.2h825.6v-51.2zM908.8 115.2h-825.6v544h825.6v-544zM960 697.599h-928v217.601c0 6.4 6.4 19.2 19.2 19.2h889.6c6.4 0 19.2-6.4 19.2-19.2v-217.601zM262.401 300.8h460.799c6.4 0 19.2 6.4 19.2 19.2v230.401c0 6.4-6.4 19.199-19.2 19.199h-460.799c-6.4 0-19.201-6.399-19.201-19.199v-230.401c6.4-12.8 12.801-19.2 19.201-19.2zM281.599 531.2h428.801v-198.4h-428.801v198.4zM320 409.599c0 0-6.401-6.399-6.401-12.799s0.001-6.4 6.401-12.8c0 0 6.4-6.401 12.8-6.401s6.399 0.001 12.799 6.401c0 0 6.401 6.4 6.401 12.8s-0.001 6.399-6.401 12.799-19.199 6.4-25.599 0zM659.2 416h-262.4c-6.4 0-19.201-6.4-19.201-19.2s6.401-19.201 19.201-19.201h262.4c6.4 0 19.2 6.401 19.2 19.201s-6.4 19.2-19.2 19.2zM499.2 448c6.4 0 6.4 0.001 12.8 6.401 0 0 6.401 6.399 6.401 12.799s-0.001 6.4-6.401 12.8-19.199 6.4-25.599 0c0 0-6.401-6.4-6.401-12.8s0.001-6.399 6.401-12.799c0-6.4 6.399-6.401 12.799-6.401zM332.8 448h102.4c6.4 0 19.201 6.4 19.201 19.2s-6.401 19.201-19.201 19.201h-102.4c-6.4 0-19.201-6.401-19.201-19.201s6.401-19.2 19.201-19.2zM646.4 896h-300.801c-44.8 0-83.199-38.4-83.199-83.2s38.399-83.201 83.199-83.201h300.801c44.8 0 83.2 38.401 83.2 83.201s-38.4 83.2-83.2 83.2zM646.4 761.599h-300.801c-25.6 0-51.199 19.201-51.199 51.201 0 25.6 19.199 51.2 51.199 51.2h300.801c25.6 0 51.2-19.2 51.2-51.2s-25.6-51.201-51.2-51.201z" />
<glyph unicode="&#xe909;" glyph-name="Attachment" horiz-adv-x="878" d="M783.093 348.343l-69.489 73.143-310.857 329.143c-58.512 58.514-149.942 58.514-208.456 0s-58.514-157.258 0-219.429l310.856-329.143c10.971-14.629 32.914-14.629 47.543 0 10.971 14.629 10.971 36.571 0 47.543l-310.856 329.143c-32.914 32.915-32.914 87.772 0 120.686s84.116 32.914 113.373 0l310.859-329.143 69.482-73.143c58.514-62.171 58.514-157.257 0-219.429s-149.939-62.171-208.453 0l-58.518 62.171-321.827 340.114-21.942 25.6c-80.457 87.771-80.458 226.743 3.656 314.514 80.457 87.771 212.113 87.772 296.227 3.658l343.771-365.715c7.314-7.314 21.947-10.971 32.918-7.314s18.282 10.971 21.939 25.6c3.657 10.971 0 25.6-7.314 32.914l-343.768 365.714c-109.715 113.371-281.601 113.371-391.316 0-106.057-113.371-109.714-299.886 0-413.257l402.287-427.886c84.114-84.114 215.768-84.114 296.225 3.657 80.457 80.457 84.118 223.086 3.661 310.857z" />
<glyph unicode="&#xe90a;" glyph-name="Barchart" horiz-adv-x="1229" d="M1208.32-2.56h-1187.84c-10.24 0-20.48-10.24-20.48-20.48s10.24-20.48 20.48-20.48h1187.84c10.24 0 20.48 10.24 20.48 20.48s-10.24 20.48-20.48 20.48zM532.48 38.4h163.84c10.24 0 20.48 10.24 20.48 20.48v409.599c0 10.24-10.24 20.481-20.48 20.481h-163.84c-10.24 0-20.48-10.241-20.48-20.481v-409.599c0-10.24 10.24-20.48 20.48-20.48zM552.96 448h122.88v-368.64h-122.88v368.64zM40.959 38.4h163.841c10.24 0 20.479 10.24 20.479 20.48v491.52c0 10.24-10.239 20.479-20.479 20.479h-163.841c-10.24 0-20.48-10.239-20.48-20.479v-491.52c0-10.24 10.24-20.48 20.48-20.48zM61.441 529.921h122.88v-450.561h-122.88v450.561zM286.721 38.4h163.839c10.24 0 20.481 10.24 20.481 20.48v614.399c0 10.24-10.241 20.481-20.481 20.481h-163.839c-10.24 0-20.48-10.241-20.48-20.481v-614.399c0-10.24 10.24-20.48 20.48-20.48zM307.2 652.8h122.879v-573.44h-122.879v573.44zM778.24 38.4h163.84c10.24 0 20.48 10.24 20.48 20.48v634.88c0 10.24-10.24 20.48-20.48 20.48h-163.84c-10.24 0-20.48-10.24-20.48-20.48v-634.88c0-10.24 10.24-20.48 20.48-20.48zM798.72 673.279h122.88v-593.919h-122.88v593.919zM1024 38.4h163.84c10.24 0 20.48 10.24 20.48 20.48v880.64c0 10.24-10.24 20.48-20.48 20.48h-163.84c-10.24 0-20.48-10.24-20.48-20.48v-880.64c0-10.24 10.24-20.48 20.48-20.48zM1044.48 919.040h122.88v-839.68h-122.88v839.68z" />
<glyph unicode="&#xe90b;" glyph-name="Bell" horiz-adv-x="859" d="M839.049 144.103c-3.307 3.303-26.426 16.516-49.548 66.065-42.942 89.187-52.852 211.406-52.852 300.594 0 115.613-72.674 218.013-175.074 264.258v69.368c0 62.761-52.852 115.613-115.613 115.613h-9.906c-62.761 0-115.613-49.548-115.613-115.613v-69.368c-102.4-46.245-175.073-148.645-175.073-264.258 0-89.187-9.909-211.406-52.851-300.594-23.123-49.548-46.245-62.761-49.548-66.065-13.213-6.606-19.819-19.819-16.516-33.032s16.517-23.123 29.73-23.123h224.617c0-85.884 72.673-151.948 158.557-151.948s155.248 69.368 158.552 151.948h224.623c13.21 0 26.426 9.91 29.729 23.123 6.606 13.213-0.003 29.729-13.213 33.032zM383.201 844.387c0 29.729 26.429 52.852 56.158 52.852h9.906c29.729 0 56.158-23.123 56.158-52.852v-49.548c-19.819 3.303-39.642 6.607-59.461 6.607s-39.635-3.304-59.455-6.607v49.548h-3.307zM442.659-4.542c-52.852 0-95.794 39.639-95.794 92.49h191.59c0-49.548-42.945-92.49-95.797-92.49zM564.878 147.406h-436.024c6.606 6.606 9.91 16.516 16.516 26.426 42.942 79.277 62.762 191.587 62.762 336.929 0 125.522 105.703 231.225 234.527 231.225 128.826 0 234.529-102.4 234.529-231.225 0-142.039 19.823-254.348 62.765-333.626 6.606-9.91 9.906-19.819 16.516-26.426h-191.59v-3.303z" />
<glyph unicode="&#xe90c;" glyph-name="Calander" horiz-adv-x="1073" d="M902.095 881.981h-48.762v78.019h-78.019v-78.019h-526.628v78.019h-78.020v-78.019h-48.762c-68.267 0-121.905-53.638-121.905-121.905v-702.171c0-68.267 53.638-121.905 121.905-121.905h785.067c68.267 0 121.905 53.638 121.905 121.905v702.171c-4.876 68.267-58.514 121.905-126.781 121.905zM945.981 57.905c0-24.381-19.505-39.010-39.010-39.010h-785.067c-24.381 0-39.010 19.505-39.010 39.010v526.629h863.086v-526.629zM945.981 662.552h-863.086v97.524c0 24.381 19.505 39.010 39.010 39.010h48.762v-78.019h78.020v78.019h526.628v-78.019h78.019v78.019h48.762c24.381 0 39.010-19.505 39.010-39.010v-97.524h4.876zM731.429 179.81h-97.524v-97.524h97.524v97.524zM585.143 179.81h-97.524v-97.524h97.524v97.524zM390.095 179.81h-97.524v-97.524h97.524v97.524zM243.81 179.81h-97.524v-97.524h97.524v97.524zM877.714 326.095h-97.524v-97.524h97.524v97.524zM731.429 326.095h-97.524v-97.524h97.524v97.524zM585.143 326.095h-97.524v-97.524h97.524v97.524zM390.095 326.095h-97.524v-97.524h97.524v97.524zM243.81 326.095h-97.524v-97.524h97.524v97.524zM877.714 521.143h-97.524v-97.524h97.524v97.524zM731.429 521.143h-97.524v-97.524h97.524v97.524zM585.143 521.143h-97.524v-97.524h97.524v97.524zM390.095 521.143h-97.524v-97.524h97.524v97.524zM243.81 521.143h-97.524v-97.524h97.524v97.524z" />
<glyph unicode="&#xe90d;" glyph-name="Call" d="M770.244 336.696c-35.617 35.617-75.691 66.783-75.691 66.783-4.452 4.452-13.357 4.452-22.261 0l-44.522-44.522-124.656 124.661c-4.452 4.452-17.809 4.452-22.261 0s-4.452-17.809 0-22.261l133.565-133.565c4.452-4.452 17.809-4.452 22.261 0l48.974 48.974c13.357-13.357 40.070-31.165 62.33-57.878 22.261-22.261 44.517-48.974 57.874-62.33-22.261-22.261-62.326-53.426-93.491-57.878-62.33-4.452-182.539 66.783-289.393 173.635-106.852 106.852-178.084 227.060-169.179 289.391 4.452 31.165 35.614 71.235 57.875 93.496 13.357-13.357 40.070-35.617 62.331-57.877s44.524-48.974 57.88-62.33l-48.978-48.974c-4.452-4.452-4.451-8.905-4.451-13.357s-0.001-8.904 4.451-13.356l48.978-48.974c4.452-4.452 17.807-4.452 22.259 0s4.452 17.808 0 22.26l-35.618 35.618 44.522 44.522c4.452 4.452 4.452 13.357 0 22.261 0 0-31.165 40.069-71.234 75.686-35.618 35.617-75.691 66.783-75.691 66.783-8.904 4.452-13.357 4.452-22.261 0-8.904-8.904-75.684-71.234-80.136-124.66-8.905-71.235 66.781-200.348 182.538-311.653 111.305-111.304 231.513-182.539 302.748-182.539 4.452 0 4.452 0 8.904 0 53.426 4.452 115.757 71.235 124.661 80.139 4.452 4.452 4.452 13.357 0 22.261 4.452 0-26.713 40.070-62.33 75.687zM877.096 817.53c-93.496 93.496-213.704 142.47-347.27 142.47s-253.777-48.974-347.272-142.47c-93.496-93.496-142.467-213.704-142.467-347.269 0-97.948 26.715-191.443 80.141-271.583l-57.88-178.087c0-4.452-0.001-13.357 4.451-17.809s8.905-4.452 17.81-4.452l178.087 57.878c80.139-53.426 173.634-80.139 271.583-80.139 129.113 0 253.774 48.974 347.27 142.47s142.47 213.704 142.47 347.27c0 133.565-53.426 258.226-146.922 351.721zM529.827 11.687c-93.496 0-182.542 26.713-258.229 80.139-4.452 0-4.45 4.452-8.902 4.452h-4.451l-155.826-53.426 53.424 155.826c0 4.452 0 8.904 0 13.357-53.426 75.687-80.136 164.73-80.136 258.226 0 253.774 204.797 458.573 458.572 458.573s458.574-204.799 458.574-458.573-209.252-458.574-463.026-458.574z" />
<glyph unicode="&#xe90e;" glyph-name="Cancel" d="M512 960c283.307 0 512-228.693 512-512s-228.693-512-512-512c-283.307 0-512 228.693-512 512s228.693 512 512 512zM512-23.040c259.413 0 471.040 211.627 471.040 471.040s-211.627 467.627-471.040 467.627c-259.413 0-471.040-211.627-471.040-471.040s211.626-467.627 471.040-467.627zM279.894 645.973c10.24 6.827 23.893 6.827 30.72 0l184.32-170.667 184.32 170.667c10.24 6.827 23.893 6.827 30.72 0 10.24-6.827 10.24-20.48 0-27.307l-184.32-170.667 184.32-170.667c10.24-6.827 10.24-20.48 0-27.307-3.413-3.413-10.24-6.827-17.067-6.827s-10.24 3.413-17.067 6.827l-184.32 170.667-184.32-170.667c-3.413-3.413-10.24-6.827-17.067-6.827s-10.24 3.413-17.067 6.827-10.24 20.48 0 27.307l184.32 170.667-184.32 170.667c-3.413 6.827-3.413 20.48 6.827 27.307z" />
<glyph unicode="&#xe90f;" glyph-name="Chat" horiz-adv-x="1071" d="M60.529-64c-4.655 0-9.311 0-13.966 4.655s-4.654 13.964-4.654 18.618l79.128 214.109c-51.2 83.782-79.128 176.873-79.128 274.618 0 283.927 228.073 512 512 512s512-228.073 512-512c0-283.927-228.073-512-512-512-93.091 0-186.183 27.927-265.31 74.473l-223.418-74.473c-4.655 0-4.653 0-4.653 0zM288.6 47.709c4.655 0 4.655 0 9.31-4.655 74.473-46.545 162.909-74.473 256-74.473 265.309 0 479.418 214.109 479.418 479.418s-214.109 479.418-479.418 479.418c-265.31 0-479.418-214.109-479.418-479.418 0-93.091 27.928-186.182 79.128-260.655 4.654-4.655 4.654-9.309 0-13.964l-69.818-190.836 195.489 65.164c4.655 0 9.31 0 9.31 0zM637.691 261.818c-4.655 0-4.655 0-9.309 0l-190.837 93.091-190.835-93.091c-9.309-4.655-13.965 0-18.62 4.655s-4.655 13.964 0 18.618l195.491 279.273c4.655 4.655 13.964 9.31 23.273 4.655l172.218-93.091 186.182 111.709c4.655 4.655 13.964 4.654 18.618-4.655 4.655-4.655 4.655-13.963 0-18.618l-181.527-293.236c4.655-4.655 0-9.309-4.655-9.309zM442.199 392.145c4.655 0 4.655 0 9.31 0l181.524-93.091 139.636 223.419-139.636-83.782c-4.655-4.655-9.304-4.655-13.959 0l-167.565 88.437-148.946-214.11 139.636 69.818c-4.655 9.309-4.655 9.309 0 9.309z" />
<glyph unicode="&#xe910;" glyph-name="Chicks" horiz-adv-x="977" d="M614.4 582.981v9.309c-4.655 9.309-13.964 13.964-23.273 13.964-9.309-4.655-13.964-13.964-13.964-23.273v-9.309c13.964-60.509 9.309-125.673-23.273-181.527s-83.782-93.091-144.291-111.709c-18.618-4.655-32.582-4.655-51.2-9.309 37.236 18.618 83.782 46.545 116.364 93.091 4.655 9.309 4.655 18.618-4.655 23.273s-18.618 4.655-23.272-4.655c-46.545-69.818-139.636-97.745-162.909-102.4-18.618 4.655-37.236 13.964-55.855 23.273-18.618 13.964-37.237 27.927-55.855 41.891 9.309 0 13.964 0 23.273 0 41.891 0 102.4 4.655 153.6 23.273 9.309 4.655 13.964 13.964 9.309 23.273s-13.964 13.964-23.273 9.309c-79.127-27.927-167.564-23.273-195.491-18.618-9.309 13.964-18.618 27.927-23.273 46.545 18.618-4.655 41.891-9.309 60.509-9.309 9.309 0 18.618 4.655 18.618 13.964s-4.654 18.618-13.963 18.618c-27.927 4.655-55.855 9.309-83.782 18.618-4.655 0-13.964 0-18.619-4.655s-4.654-9.309-4.654-18.618c0-4.655 0-4.655 0-9.309 18.618-69.818 65.163-130.327 125.672-167.564 41.891-23.273 88.436-37.236 139.636-37.236 23.273 0 46.545 4.655 69.818 9.309 69.818 18.618 130.327 65.164 167.564 125.673 46.545 69.818 55.855 144.29 37.236 214.109zM488.727 508.509c-4.655 9.309-13.964 9.31-23.273 9.31-32.582-18.618-69.818-32.582-107.055-41.891s-79.127-13.964-116.364-13.964c-9.309 0-18.618-9.309-18.618-18.618s9.309-18.618 18.618-18.618c41.891 0 83.782 4.655 125.673 18.618 41.891 9.309 79.127 23.273 116.363 46.545 9.309 0 9.309 9.309 4.655 18.618zM968.145 722.618c-9.309 41.891-55.855 60.509-79.127 69.818 0 0 0 4.655-4.655 4.655 4.655 4.655 4.655 13.963 9.309 18.618 9.309 27.927 9.309 55.855 4.655 83.782s-23.273 46.545-41.891 51.199c-18.618 4.655-37.236 0-55.855-9.309-13.964 13.964-27.927 18.619-41.891 18.619s-32.582-4.655-41.891-18.619c-18.618 13.964-37.236 18.618-55.855 9.309-32.582-9.309-51.2-51.2-46.545-102.4 0-9.309 9.309-13.964 18.618-13.964s18.618 9.31 13.964 18.619c-4.655 32.582 4.655 60.509 23.273 65.163 9.309 4.655 23.273-4.655 37.236-13.964 4.655-4.655 9.309-4.654 13.964-4.654s9.309 4.654 13.964 9.309c4.655 9.309 13.964 18.618 27.927 18.618s23.273-13.964 27.927-18.618c4.655-4.655 9.309-9.309 13.964-9.309s9.309 0 13.964 4.654c13.964 13.964 27.927 18.618 37.236 13.964s18.618-13.963 18.618-27.927c4.655-13.964 4.655-37.237 0-55.855-41.891 46.545-107.055 65.164-167.564 32.582-13.964-4.655-27.927-13.964-37.236-27.928-37.236-46.545-121.018-116.363-242.036-158.254-88.436-32.582-218.763-60.509-353.745-13.964 13.964 23.273 41.89 69.818 65.163 93.091 4.655 4.655 4.655 18.618 0 23.273s-18.618 4.655-23.273 0c-23.273-23.273-46.545-60.51-65.163-88.437-9.309 23.273-13.964 51.2-13.964 74.473 0 9.309-9.309 18.618-18.618 18.618s-18.619-9.309-18.619-18.618c0-46.545 18.618-97.745 27.928-116.364-37.236-107.055-32.582-218.763 13.964-321.163s130.327-181.527 237.381-223.418c41.891-13.964 88.436-23.273 130.327-27.927l23.273-74.473h-9.309c-9.309 0-18.619-9.309-18.619-18.618s9.31-18.618 18.619-18.618h97.745c9.309 0 18.618 9.309 18.618 18.618s-9.309 18.618-18.618 18.618h-51.2l-23.272 79.127c13.964 0 32.581 4.655 46.545 4.655 69.818 9.309 139.636 41.891 195.491 83.782 9.309 4.655 9.309 18.618 4.655 23.273-4.655 9.309-18.618 9.309-23.273 4.655-107.055-83.782-246.691-107.055-377.018-55.855-97.745 37.236-176.872 107.055-218.763 204.8-41.891 88.436-46.546 190.836-13.964 283.927 55.855-18.618 111.71-27.928 167.564-27.928 214.109 0 400.29 121.018 470.109 209.455 4.655 9.309 13.964 13.964 23.273 18.618 51.2 23.273 111.709 4.655 134.982-41.891 13.964-23.273 13.964-51.2 4.655-74.473s-27.927-46.545-51.2-55.855l-32.582-13.964c-4.655 0-9.309-4.655-9.309-9.309s0-9.309 4.655-13.964c46.545-60.509 55.855-134.981 32.582-214.109-4.655-9.309-4.655-18.618-9.309-27.927-18.618-51.2-46.545-93.091-83.782-134.982-4.655-4.655-4.655-18.618 0-23.273s18.618-4.655 23.273 0c41.891 41.891 69.818 88.436 88.436 144.291 4.655 9.309 9.309 18.618 9.309 32.582 23.273 79.127 13.964 158.254-27.927 223.418l13.964 9.31c23.273 9.309 41.891 27.927 55.855 46.545 4.655 0 9.309 0 13.964 0 55.855 0 79.127 37.236 79.127 37.236 0-4.655 0 0 0 4.655zM884.364 704c4.655 13.964 9.309 32.582 4.655 46.545 13.964-4.655 32.582-13.964 41.891-32.582-9.309-4.655-23.273-13.963-46.545-13.963zM791.273 759.855c9.309 0 13.964 4.655 13.964 13.964s-4.655 13.963-13.964 13.963c-9.309 0-13.964-4.654-13.964-13.963-4.655-9.309 4.655-13.964 13.964-13.964z" />
<glyph unicode="&#xe911;" glyph-name="ClinicalReports" horiz-adv-x="768" d="M676.571 879.544h-87.771c-7.314 25.6-32.914 40.227-58.514 40.227h-65.829c-18.286 25.6-51.2 40.229-84.114 40.229-32.916 0-65.829-14.629-84.115-40.229h-65.828c-29.257 0-51.199-18.285-58.514-40.227h-87.772c-47.543 0-84.114-36.572-84.114-84.115v-742.4c0-43.886 36.571-84.114 84.114-84.114h596.115c47.543 0 84.114 36.571 84.114 84.114v742.4c-3.657 47.543-43.886 84.115-87.771 84.115zM204.799 861.258c0 10.971 10.973 21.942 21.944 21.942h76.799c7.314 0 14.629 3.658 18.286 10.972 10.971 18.286 32.914 29.257 54.858 29.257s43.886-10.971 54.857-29.257c3.657-7.314 10.971-10.972 18.286-10.972h76.8c10.971 0 21.943-10.97 21.943-21.942v-21.943c0-21.943-18.286-40.229-43.886-40.229h-256c-21.943 0-43.886 18.286-43.886 40.229v21.943zM716.8 56.686c0-21.943-18.286-40.229-43.886-40.229h-596.115c-21.943 0-43.886 18.286-43.886 40.229v742.4c0 21.943 18.286 40.229 43.886 40.229h84.114c0-43.886 36.573-84.115 84.116-84.115h256c47.543 0 84.114 36.572 84.114 84.115h84.114c21.943 0 43.886-18.286 43.886-40.229v-742.4h3.657zM592.457 159.086h-394.973c-10.971 0-21.942-7.314-21.942-18.286s10.97-18.286 21.942-18.286h394.973c10.971 0 21.943 7.314 21.943 18.286s-10.971 18.286-21.943 18.286zM592.457 268.8h-394.973c-10.971 0-21.942-7.314-21.942-18.286s10.97-18.286 21.942-18.286h394.973c10.971 0 21.943 7.314 21.943 18.286s-10.971 18.286-21.943 18.286zM592.457 466.286h-29.257l-36.571 73.143c-3.657 7.314-10.971 10.971-21.943 10.971-7.314 0-14.629-7.314-18.286-14.629l-40.229-106.057-47.543 186.515c-3.657 7.314-10.971 14.628-18.286 14.628-10.971 0-18.286-3.657-21.943-10.971l-80.458-157.258h-73.143c-10.971 0-21.942-10.971-21.942-21.943s10.971-21.943 21.942-21.943h87.772c7.314 0 14.629 3.657 18.286 10.971l62.171 117.029 51.2-197.486c3.657-7.314 10.971-14.629 18.286-14.629s18.286 3.657 21.943 14.629l47.543 120.686 21.943-40.229c3.657-7.314 10.971-10.971 18.286-10.971h43.886c10.971 0 21.943 10.971 21.943 21.943s-14.629 25.6-25.6 25.6z" />
<glyph unicode="&#xe912;" glyph-name="Connected" horiz-adv-x="1270" d="M614.408-55.808c45.056 0 81.92 36.864 81.92 81.92s-36.864 81.92-81.92 81.92c-45.056 0-81.92-36.864-81.92-81.92s36.864-81.92 81.92-81.92zM868.36 296.448c-65.536 61.44-155.648 102.4-237.568 102.4h-4.092c-81.92 0-176.132-40.96-237.571-102.4-20.48-20.48-20.48-49.152 0-69.632 8.192-8.192 20.483-16.384 32.771-16.384s24.572 4.096 32.764 12.288c45.056 45.056 110.592 73.728 167.936 73.728h4.1c57.344 0 122.876-28.672 167.932-73.728 20.48-20.48 49.152-20.48 69.632 0 20.48 24.576 20.48 53.248 4.096 73.728zM1216.52 693.76c-159.744 172.032-372.736 266.24-602.112 266.24s-442.365-94.208-602.109-266.24c-16.384-20.48-16.385-49.152 4.095-69.632 20.48-16.384 49.15-16.384 69.63 4.096 139.264 151.552 327.68 233.473 532.48 233.473s393.216-81.921 532.48-233.473c8.192-12.288 20.48-16.384 36.864-16.384 12.288 0 24.58 4.096 32.772 12.288 12.288 20.48 12.284 49.152-4.1 69.632zM1052.68 509.44c-114.688 118.784-270.332 184.32-425.98 184.32-159.744 0-311.298-65.536-425.986-184.32-20.48-20.48-20.48-49.152 0-69.632s49.15-20.48 69.63 0c98.304 102.4 225.28 155.648 360.448 155.648 131.076 0 258.048-53.248 360.448-155.648 8.192-8.192 20.48-16.384 32.768-16.384s24.58 4.096 32.772 12.288c16.384 24.576 16.38 53.248-4.1 73.728z" />
<glyph unicode="&#xe913;" glyph-name="Contact" horiz-adv-x="956" d="M822.613 570.88v40.96c0 95.573-34.133 180.907-92.16 245.76-61.44 68.267-146.773 102.4-238.933 102.4h-30.72c-92.16 0-177.493-37.547-238.933-102.4s-92.158-153.6-92.158-245.76v-40.96c-71.68-3.413-129.708-64.853-129.708-139.947v-61.44c0-78.507 61.439-139.947 139.946-139.947h78.508c13.653 0 27.308 10.24 27.308 27.307v293.547c0 13.653-10.242 27.307-27.308 27.307h-37.546v37.547c0 170.666 119.465 296.96 279.892 296.96h30.72c160.427 0 279.893-129.707 279.893-296.96v-37.547h-37.547c-13.653 0-27.303-10.24-27.303-27.307v-290.133c0-13.653 10.237-27.307 27.303-27.307h37.547c-10.24-133.12-102.4-167.253-146.773-174.080-10.24 37.547-44.373 61.44-85.333 61.44h-64.853c-47.787 0-88.747-40.96-88.747-92.16s40.96-92.16 88.747-92.16h64.853c40.96 0 75.093 27.307 85.333 68.267 20.48 3.413 54.613 10.24 85.333 30.72 44.373 27.307 102.4 81.92 109.227 194.56 75.093 3.413 129.707 64.853 129.707 139.947v61.44c3.413 75.093-54.613 136.533-126.293 139.947zM191.146 280.747h-54.613c-47.787 0-88.746 40.96-88.746 88.747v61.44c0 47.787 40.959 88.747 88.746 88.747h54.613v-238.933zM539.307-12.8h-64.853c-20.48 0-37.547 17.067-37.547 37.547s17.067 37.547 37.547 37.547h64.853c20.48 0 37.547-17.067 37.547-37.547s-17.067-37.547-37.547-37.547zM901.12 369.493c0-47.787-40.96-88.747-88.747-88.747h-54.61v238.933h54.61c47.787 0 88.747-40.96 88.747-88.747v-61.44z" />
<glyph unicode="&#xe914;" glyph-name="Cross" d="M119.466 55.467l341.333 341.333 341.333-341.333c22.756-22.756 68.27-22.756 102.403 0 22.756 22.756 22.756 68.267 0 102.4l-341.333 341.333 341.333 341.333c22.756 22.756 22.756 68.267 0 102.4-22.756 22.756-68.27 22.756-102.403 0l-341.333-341.333-341.333 341.333c-22.755 22.756-68.266 22.756-102.399 0-22.756-22.756-22.756-68.267 0-102.4l341.333-341.333-341.333-341.333c-22.756-22.756-22.756-68.267 0-102.4 22.756-22.756 68.266-22.756 102.399 0z" />
<glyph unicode="&#xe915;" glyph-name="Dashboard" horiz-adv-x="1186" d="M1131.789 582.737c0 5.389 0 5.39-5.389 5.39-26.947 70.063-70.063 134.736-123.958 194.021 0 0 0 0 0 5.389 0 0 0 0-5.389 0-107.789 107.789-253.305 172.463-409.6 172.463-75.453 0-150.905-16.169-215.579-43.116 0 0 0 0-5.389 0 0 0 0 0-5.389 0-70.063-32.337-134.737-75.452-188.632-129.347 0 0 0 0-5.389 0 0 0 0 0 0-5.389-102.4-107.789-167.074-258.695-167.074-420.379 0-134.737 43.116-264.084 129.347-371.874 5.389-5.389 10.779-5.389 16.168-5.389h889.263c5.389 0 10.779 0 16.168 5.389 86.232 107.789 129.347 237.137 129.347 371.874-5.389 75.452-21.558 150.905-48.505 220.968zM1024 16.842h-873.095c-26.947 32.337-48.505 70.063-64.674 113.179l53.895 21.558c10.779 5.389 16.168 16.168 10.779 26.947s-16.168 16.168-26.947 10.779l-53.895-21.558c-21.558 53.895-32.337 113.179-32.337 172.463h134.737c10.779 0 21.558 5.389 21.558 21.558s-5.389 21.558-21.558 21.558h-134.737c0 64.674 16.169 123.958 37.726 177.853l53.895-21.558h5.389c5.389 0 16.168 5.389 16.168 10.778 5.389 10.779 0 21.558-10.779 26.947l-53.895 21.558c26.947 53.895 59.284 102.4 97.011 145.516l37.726-43.116c5.389-5.389 5.389-5.389 16.168-5.389s10.779-0.001 16.168 5.389 5.389 21.558 0 26.947l-37.726 43.116c43.116 43.116 91.621 75.452 150.905 102.399l21.558-53.895c0-5.389 10.779-10.778 16.168-10.778h5.389c10.779 5.389 16.168 16.168 10.779 26.947l-21.558 53.895c53.895 21.558 107.789 32.337 167.074 32.337v-140.126c0-10.779 5.389-21.558 21.558-21.558 10.779 0 21.558 5.389 21.558 21.558v140.126c59.284 0 118.568-16.168 177.853-37.726l-21.558-53.895c-5.389-10.779 0-21.558 10.779-26.947h5.389c5.389 0 16.168 5.389 16.168 10.778l21.558 53.895c53.895-26.947 102.4-59.284 140.126-97.011l-37.726-43.116c-5.389-5.389-5.389-21.558 0-26.947s5.389-5.389 16.168-5.389c5.389 0 10.779-0.001 16.168 5.389l37.726 43.116c43.116-43.116 75.453-97.011 97.011-150.905l-53.895-21.558c-10.779-5.389-16.168-16.168-10.779-26.947 0-5.389 10.779-10.778 16.168-10.778h5.389l53.895 21.557c21.558-53.895 32.337-113.179 32.337-172.463h-134.737c-10.779 0-21.558-5.389-21.558-21.558s5.389-21.558 21.558-21.558h134.737c0-64.674-16.168-123.958-37.726-177.853l-53.895 21.558c-10.779 5.389-21.558 0-26.947-10.779s0-21.558 10.779-26.947l53.895-26.947c-10.779-32.337-32.337-70.063-53.895-102.4zM732.968 539.621l-91.621-59.284c-32.337-21.558-70.063-37.726-102.4-53.895-10.779-5.389-21.558-10.779-32.337-16.169-43.116-21.558-64.674-70.063-53.895-113.179 5.389-37.726 37.726-64.674 70.063-75.453 5.389 0 16.168 0 21.558 0 37.726 0 70.063 21.558 86.232 53.895 5.389 10.779 10.779 21.558 16.168 32.337 16.168 32.337 32.337 70.063 53.895 102.4l59.284 97.011c5.389 5.389 0 16.168-5.389 21.557-5.389 10.779-16.168 10.779-21.558 10.779zM668.295 437.221c-21.558-37.726-37.726-70.063-53.895-107.789-5.389-10.779-10.779-21.558-16.168-32.337-10.779-26.947-37.726-37.726-64.674-32.337-21.558 5.389-37.726 21.558-43.116 43.116-5.389 26.947 5.389 53.895 32.337 70.063 10.779 5.389 21.558 10.779 32.337 16.168 37.726 16.168 70.063 37.726 107.789 53.895l26.947 16.168-21.558-26.947z" />
<glyph unicode="&#xe916;" glyph-name="Delete" horiz-adv-x="847" d="M695.614 839.945h-155.366c-10.593 67.090-67.090 120.055-137.71 120.055s-127.117-52.966-134.179-120.055h-155.366c-63.559 0-112.993-49.434-112.993-112.993v-7.062c0-45.903 31.779-88.276 74.152-105.931v-533.186c0-63.559 52.966-112.993 116.524-112.993h437.848c63.559 0 116.524 49.434 116.524 112.993v536.717c42.372 17.655 74.152 56.497 74.152 105.931v7.062c-10.593 60.028-63.559 109.462-123.586 109.462zM402.538 907.034c38.841 0 74.152-28.248 81.214-63.559h-158.897c3.531 35.31 38.841 63.559 77.683 63.559zM681.49 84.303c0-31.779-28.248-60.028-60.028-60.028h-437.848c-31.779 0-60.028 28.248-60.028 60.028v526.124h557.903v-526.124zM755.641 723.421c0-31.779-28.248-60.028-60.028-60.028h-586.152c-31.779 0-60.028 28.248-60.028 60.028v7.062c0 31.779 28.248 60.028 60.028 60.028h582.621c31.779 0 60.028-28.248 60.028-60.028v-7.062h3.531zM561.434 112.552c21.186 0 35.31 10.593 35.31 28.248v300.138c0 14.124-14.124 28.248-35.31 28.248s-35.31-10.593-35.31-28.248v-300.138c0-17.655 14.124-28.248 35.31-28.248zM420.193 112.552c21.186 0 35.31 10.593 35.31 28.248v300.138c0 14.124-14.124 28.248-35.31 28.248s-35.31-10.593-35.31-28.248v-300.138c0-17.655 14.124-28.248 35.31-28.248zM278.952 112.552c21.186 0 35.31 10.593 35.31 28.248v300.138c0 14.124-14.124 28.248-35.31 28.248s-35.31-10.593-35.31-28.248v-300.138c0-17.655 14.124-28.248 35.31-28.248z" />
<glyph unicode="&#xe917;" glyph-name="DevicesSmall" horiz-adv-x="1164" d="M982.090 543.418h-688.869c-9.309 0-18.619-9.309-18.619-13.964 0-9.309 9.31-13.964 18.619-13.964h688.869c79.127 0 144.291-60.509 144.291-130.327s-65.164-130.327-144.291-130.327h-88.436c-9.309 0-18.614-9.309-18.614-13.964 0-9.309 9.304-13.964 18.614-13.964h88.436c97.745 0 181.527 74.473 181.527 162.909s-79.127 153.6-181.527 153.6zM930.89 333.964c0 37.236-32.582 69.818-69.818 69.818s-69.818-32.582-69.818-69.818c0-37.236 32.582-69.818 69.818-69.818s69.818 32.582 69.818 69.818zM828.495 333.964c0 18.618 13.959 32.582 32.577 32.582s32.582-13.964 32.582-32.582c0-18.618-13.964-32.582-32.582-32.582s-32.577 13.964-32.577 32.582zM744.709 333.964c0 37.236-32.582 69.818-69.818 69.818s-69.818-32.582-69.818-69.818c0-37.236 32.582-69.818 69.818-69.818s69.818 32.582 69.818 69.818zM642.313 333.964c0 18.618 13.959 32.582 32.577 32.582s32.582-13.964 32.582-32.582c0-18.618-13.964-32.582-32.582-32.582s-32.577 13.964-32.577 32.582zM558.527 333.964c0 37.236-32.582 69.818-69.818 69.818s-69.817-32.582-69.817-69.818 32.582-69.818 69.817-69.818c37.236 0 69.818 32.582 69.818 69.818zM456.131 333.964c0 18.618 13.96 32.582 32.578 32.582s32.582-13.964 32.582-32.582c0-18.618-13.964-32.582-32.582-32.582s-32.578 13.964-32.578 32.582zM302.528 357.236c13.964 0 23.273 9.309 23.273 23.273s-9.309 23.273-23.273 23.273c-13.964 0-23.273-9.309-23.273-23.273s9.309-23.273 23.273-23.273zM902.968 87.273h-162.909v107.055h107.050c9.309 0 18.618 9.309 18.618 18.618s-9.309 18.618-18.618 18.618h-665.597c-79.127 0-144.29 60.509-144.29 139.636s65.163 139.637 144.29 139.637h79.125c9.309 0 18.619 9.309 18.619 18.618s-9.31 18.619-18.619 18.619h-79.125c-97.745 0-176.875-79.128-176.875-172.219 0-97.745 79.13-172.218 176.875-172.218h265.307v-107.055h-162.909c-41.891 0-74.472-32.582-74.472-74.473s32.581-74.473 74.472-74.473h144.29c9.309 0 18.62 9.309 18.62 18.618s-9.31 18.618-18.62 18.618h-144.29c-23.273 0-41.892 18.618-41.892 41.891s18.62 41.891 41.892 41.891h619.059c23.273 0 41.891-18.618 41.891-41.891s-18.618-41.891-41.891-41.891h-404.95c-9.309 0-18.614-9.309-18.614-18.618s9.304-18.618 18.614-18.618h404.95c41.891 0 74.468 32.582 74.468 74.473 0 32.582-32.577 65.164-74.468 65.164zM479.404 87.273v107.055h223.414v-107.055h-223.414zM493.363 641.164c4.655-4.655 18.618-4.655 23.273 0 23.273 18.618 55.859 18.618 79.132 0 4.655-4.655 18.618-4.655 23.273 0s4.655 13.963 0 18.618c-37.236 27.927-93.096 27.927-130.332 0 0 0 0-13.963 4.655-18.618zM446.818 706.327c4.655-4.655 18.618-4.655 23.272 0 46.545 46.545 125.677 46.545 176.877 0 4.655-4.655 18.618-4.655 23.273 0s4.655 13.964 0 23.273c-60.509 55.855-162.914 55.855-223.422 0-4.655-9.309-4.655-18.618 0-23.273zM330.455 827.346c4.655-9.309 18.618-9.309 23.273 0 111.709 125.673 293.241 125.673 404.95 0 4.655-9.309 18.618-9.309 23.273 0s9.309 18.618 0 27.927c-125.673 139.636-330.476 139.636-456.149 0 0-9.309-4.655-13.963 4.654-27.927zM400.273 776.145c4.655-4.655 18.618-4.655 23.273 0 74.472 74.473 195.495 74.473 269.968 0 4.655-4.655 18.618-4.655 23.273 0s4.655 18.618 0 23.273c-88.436 88.436-228.077 88.436-316.513 0-4.655-4.655-4.655-23.273 0-23.273z" />
<glyph unicode="&#xe918;" glyph-name="Doctor-1" horiz-adv-x="948" d="M944.371-10.904l-45.511 265.481c-3.793 30.341-26.548 53.096-53.096 60.681l-121.363 37.926c-3.793 30.341-15.17 56.889-34.133 79.644-15.17 18.963-37.926 30.341-60.681 37.926 3.793 3.793 7.585 7.585 11.378 11.378 30.341 37.926 45.511 75.852 49.304 106.193h11.378c22.756 0 45.511 18.962 45.511 45.51v22.756c0 15.17-7.585 30.341-22.756 37.926v53.096c0 7.585-7.585 15.17-15.17 15.17s-15.17-7.585-15.17-15.17v-60.681c-7.585 0-11.378-3.792-18.963-7.584 0 0 0 0-3.793 0 0 0-3.793 0-3.793-3.793v121.363c0 34.133-26.548 60.681-60.681 60.681h-41.719c-15.17 0-26.548-3.793-37.926-15.17l-3.793-3.793c-7.585-7.585-15.17-7.584-26.548-7.584s-18.963 3.792-26.548 7.584l-3.793 3.793c-11.378 7.585-26.548 15.17-37.926 15.17h-41.719c-34.134 0-60.682-26.547-60.682-60.681v-121.363c0 0-3.792 0-3.792 3.793 0 0 0 0-3.793 0-7.585 3.793-15.17 3.792-18.963 7.584v155.496c0 49.304 37.926 87.23 87.23 87.23h219.97c49.304 0 87.23-37.927 87.23-87.23v-22.756c0-7.585 7.585-15.17 15.17-15.17s15.17 7.585 15.17 15.17v22.756c0 64.474-53.096 117.571-117.57 117.571h-219.97c-64.474 0-117.571-53.097-117.571-117.571v-147.911c-15.17-7.585-22.755-22.756-22.755-37.926v-22.756c0-22.756 18.963-45.51 45.511-45.51h7.585c3.793-26.549 18.963-68.267 49.304-106.193 3.793-3.793 7.585-7.585 11.378-11.378-53.096-15.17-91.022-64.474-94.815-117.57l-121.363-37.926c-26.548-7.585-49.303-30.341-53.096-60.681l-18.963-106.193c0-7.585 3.793-15.17 11.378-18.963 7.585 0 15.17 3.793 18.963 11.378l18.963 106.193c3.793 18.963 15.17 30.341 30.341 37.926l113.778 34.133v-30.341c-26.548-3.793-49.304-22.756-56.889-45.511-3.793-7.585-3.793-15.17-3.793-18.963l-11.378-140.326c0-11.378 3.793-22.756 11.378-30.341s18.963-11.378 26.548-11.378h18.963c7.585 0 15.171 7.585 15.171 15.17s-7.586 15.17-15.171 15.17h-18.963c-3.793 0-3.792 0-7.585 3.793 0 0-3.793 3.793-3.793 7.585l11.378 140.326c0 3.793 0 7.585 3.793 11.378 7.585 18.963 22.755 30.341 41.718 30.341h3.793c18.963 0 34.133-11.378 41.719-26.548 3.793-3.793 3.792-7.585 3.792-15.17l11.378-140.326c0-3.793 0-3.793-3.793-7.585 0 0-3.793-3.793-7.585-3.793h-26.548c-7.585 0-15.17-7.585-15.17-15.17s7.585-15.17 15.17-15.17h18.963c11.378 0 22.755 3.793 26.548 11.378s11.378 18.963 11.378 30.341l-11.378 140.326c0 7.585-3.792 15.17-7.585 22.756-11.378 22.756-30.341 37.926-56.889 45.511v37.926l53.096 15.17c3.793-11.378 15.171-30.341 34.134-75.852s41.719-106.193 64.474-163.081c15.17-37.926 30.341-75.852 41.719-109.985 3.793-7.585 7.585-11.378 15.17-11.378s11.378 3.793 15.17 11.378c11.378 34.133 26.548 72.059 41.719 109.985 22.756 56.889 45.511 117.57 64.474 163.081s26.548 68.267 34.133 75.852l53.096-15.17v-87.23c-34.133-7.585-64.474-37.926-64.474-75.852 0-41.719 34.133-75.852 79.644-75.852 41.719 0 75.852 34.133 75.852 75.852 0 37.926-26.548 68.267-60.681 75.852v79.644l113.778-34.133c15.17-3.793 30.341-18.963 30.341-37.926l45.511-265.481c0-3.793 0-7.585-3.793-11.378s-7.585-3.793-11.378-3.793h-819.2c-3.793 0-7.585 0-11.378 3.793s-3.793 7.585-3.793 11.378l15.171 87.23c0 7.585-3.793 15.17-11.378 18.963-7.585 0-15.17-3.793-18.963-11.378l-15.17-87.23c-3.792-11.378 0-26.548 11.377-37.926 7.585-11.378 22.756-15.17 34.134-15.17h819.2c15.17 0 26.548 7.585 34.133 15.17 3.793 7.585 7.585 18.963 7.585 34.133zM690.267 656.593c7.585 3.793 15.17 3.793 15.17 3.793 3.793 0 3.793 0 7.585 0v-26.549c0-7.585-7.585-15.17-15.17-15.17h-7.585v37.926zM288.251 618.667h-7.585c-7.585 0-15.17 7.585-15.17 15.17v26.549c3.793 0 3.793 0 7.585 0 0 0 7.585 0 15.17-3.793v-37.926zM318.593 599.704v37.926c3.793 0 11.377 0 15.17 0 7.585 3.793 11.378 11.378 11.378 18.963v136.534c0 15.17 15.171 30.34 30.341 30.34h41.719c7.585 0 15.17-3.792 18.963-7.584l3.793-3.793c11.378-11.378 30.341-15.17 45.511-15.17s34.133 7.585 45.511 15.17l3.793 3.793c7.585 3.793 11.378 7.584 18.963 7.584h41.719c15.17 0 30.341-15.17 30.341-30.34v-136.534c0-7.585 3.793-15.17 11.378-18.963 3.793 0 3.793 0 7.585 0s3.793 0 7.585 0v-37.926c0-22.756-15.17-64.474-41.719-98.607-7.585-11.378-22.756-22.756-34.133-34.133-22.756-15.17-53.096-30.341-87.23-30.341s-64.474 11.378-87.23 30.341c-15.17 11.378-26.549 22.756-34.134 34.133-34.133 34.133-49.304 75.852-49.304 98.607zM587.867 356.978l-98.607-72.059-98.607 72.059c11.378 11.378 15.17 26.548 15.17 41.719v22.756c22.756-11.378 49.304-18.963 83.437-18.963s60.681 7.585 83.437 18.963v-22.756c0-11.378 3.793-26.548 15.17-41.719zM364.103 375.941c-7.585 3.793-15.17 3.793-26.548 0l-53.096-15.17c7.585 41.719 45.511 75.852 87.229 83.437v-45.511c3.793-7.585 0-18.963-7.585-22.756zM405.823 254.578c0 3.793 0 3.793-3.793 7.585 0 0 0 3.793-3.793 3.793-3.793 3.793-3.793 11.378-7.585 15.17v7.585c0 3.793-3.793 3.793-3.793 7.585 0 0 0 0 0 3.793 0 0 0 0 0 3.793s-3.793 7.585-3.793 11.378c0 3.793 0 3.793-3.793 7.585 0 0 0 0 0 3.793l83.437-64.474-34.133-15.17-15.17-7.585c-3.793 11.378-7.585 11.378-7.585 15.17zM443.749 163.556c-3.793 7.585-7.585 15.17-7.585 22.756-3.793 11.378-7.585 22.756-15.17 34.133l3.793 3.793 22.756-26.548-3.793-34.133zM489.26 42.193c-7.585 18.963-15.17 41.719-26.548 68.267l15.17 75.852h22.756l15.17-75.852c-11.378-26.548-18.963-53.096-26.548-68.267zM508.223 216.652h-34.133l-15.17 18.963 34.133 15.17 34.133-15.17-18.963-18.963zM546.149 186.311c-3.793-7.585-7.585-15.17-7.585-22.756l-7.585 34.133 22.756 26.548 3.793-3.793c-3.793-11.378-7.585-22.756-11.378-34.133zM603.037 330.43c0 0 0-3.793-3.793-3.793 0 0 0-3.793-3.793-7.585 0 0 0-3.793-3.793-3.793 0 0 0 0 0-3.793v-3.793c0-3.793-3.793-3.793-3.793-7.585v-7.585c-3.793-3.793-3.793-11.378-7.585-15.17 0 0 0-3.793-3.793-3.793 0 0 0-3.793-3.793-7.585 0-3.793 0-3.793-3.793-7.585l-15.17 7.585-34.133 15.17 83.437 49.304zM640.963 375.941c-7.585 3.793-18.963 3.793-26.548 0-7.585 7.585-11.378 15.17-11.378 26.548v45.511c45.511-7.585 79.644-41.719 87.23-83.437l-49.304 11.378zM754.741 163.556c0-26.548-22.756-49.304-49.304-49.304s-49.304 22.756-49.304 49.304c0 26.548 22.756 49.304 49.304 49.304 30.341-3.793 49.304-22.756 49.304-49.304z" />
<glyph unicode="&#xe919;" glyph-name="Doctor" horiz-adv-x="1059" d="M942.829 271.448l-215.397 98.869c21.186 24.717 35.31 56.497 45.903 88.276 42.372 10.593 70.621 45.903 70.621 88.276 0 38.841-28.248 74.151-63.559 88.276v84.746c0 130.648-105.931 240.11-240.11 240.11s-240.11-105.931-240.11-240.11v-84.746c-35.31-10.593-63.556-45.903-63.556-88.276s31.779-81.214 70.621-88.276c10.593-31.779 24.715-63.559 45.901-88.276l-215.392-98.869c-67.090-31.779-112.991-102.4-112.991-176.552v-158.897h1024.001v158.897c7.062 74.152-35.31 144.772-105.931 176.552zM363.735 719.89c0 98.869 81.214 180.082 180.083 180.082s180.083-81.213 180.083-180.082v-52.966c-74.152 28.248-102.4 77.682-102.4 77.682l-21.186 38.842-28.245-35.31c0 0-60.031-74.152-204.804-105.931v77.683h-3.531zM300.177 550.4c0 17.655 14.125 31.779 31.78 31.779h31.779c120.055 24.717 190.679 74.151 225.99 105.931 24.717-24.717 67.086-63.558 134.176-81.213v-21.186h31.779c17.655 0 31.779-14.124 31.779-31.779s-14.124-31.779-31.779-31.779h-28.248l-3.531-24.717c-14.124-84.745-88.276-148.303-176.552-148.303s-162.428 63.559-176.552 148.303l-3.531 24.717h-28.249c-24.717-3.531-38.84 10.593-38.84 28.248zM617.97 296.166l-74.152-116.524-74.152 116.524c24.717-7.062 49.434-10.593 74.152-10.593s49.434 3.531 74.152 10.593zM300.177-3.972c-21.186 0-38.841 17.655-38.841 38.841s17.654 38.841 38.841 38.841c21.186 0 38.84-17.655 38.84-38.841s-17.654-38.841-38.84-38.841zM91.845 94.897c0 52.966 31.782 98.869 77.686 123.586l98.866 45.903v-130.648c-42.372-14.124-70.621-49.434-70.621-95.338 0-14.124 3.534-28.248 7.065-38.841h-116.526v95.338h3.53zM391.984-3.972c7.062 10.593 7.062 24.717 7.062 38.841 0 45.903-28.248 81.214-70.619 95.338v158.897l52.964 24.717 162.428-247.172 162.428 247.172 49.434-21.186v-120.055c-49.434-10.593-84.745-56.497-84.745-105.931v-70.621h-278.952zM727.432-3.972v70.621c0 28.248 21.186 49.434 49.434 49.434h10.593c28.248 0 49.438-21.186 49.438-49.434v-70.621h-109.466zM995.794-3.972h-98.872v70.621c0 52.966-35.31 95.338-84.745 105.931v91.807l105.931-49.434c45.903-21.186 77.686-70.621 77.686-123.586v-95.338z" />
<glyph unicode="&#xe91a;" glyph-name="DoctorDiagnose" horiz-adv-x="796" d="M27.138-64h735.765c15.17 0 30.341 15.17 30.341 30.341v902.637c0 15.17-15.17 30.34-30.341 30.34h-212.389v30.342c0 15.17-15.167 30.34-30.337 30.34h-246.52c-15.17 0-30.34-15.17-30.34-30.34v-30.342h-212.384c-15.17 0-30.343-15.17-30.343-30.34v-902.637c-3.793-15.17 11.378-30.341 26.549-30.341zM303.997 899.318h182.047v-60.681h-182.047v60.681zM57.478 838.637h182.046v-30.34c0-15.17 15.17-30.34 30.34-30.34h246.519c15.17 0 30.341 15.17 30.341 30.34v30.34h182.044v-845.748h-675.083v845.748h3.791zM611.199 125.63h-242.728c-15.17 0-30.34-15.17-30.34-37.926s15.17-37.926 30.34-37.926h242.728c15.17 0 30.341 15.17 30.341 37.926s-15.17 37.926-30.341 37.926zM224.353 49.778c22.756 0 37.926 15.17 37.926 37.926s-15.17 37.926-37.926 37.926c-22.756 0-37.926-15.17-37.926-37.926s15.17-37.926 37.926-37.926zM611.199 239.407h-242.728c-15.17 0-30.34-15.17-30.34-37.926s15.17-37.926 30.34-37.926h242.728c15.17 0 30.341 15.17 30.341 37.926s-15.17 37.926-30.341 37.926zM224.353 163.556c22.756 0 37.926 15.17 37.926 37.926s-15.17 37.926-37.926 37.926c-22.756 0-37.926-15.17-37.926-37.926s15.17-37.926 37.926-37.926zM573.273 611.081h-91.022v91.023c0 15.17-15.17 30.34-30.341 30.34h-117.571c-15.17 0-30.343-11.377-30.343-30.34v-91.023h-91.021c-15.17 0-30.34-11.377-30.34-30.34v-117.57c0-15.17 15.17-30.341 30.34-30.341h91.021v-91.022c0-15.17 15.172-30.341 30.343-30.341h117.571c15.17 0 30.341 11.378 30.341 30.341v91.022h91.022c15.17 0 30.341 11.378 30.341 30.341v117.57c0 18.963-15.17 30.34-30.341 30.34zM542.932 493.511h-91.022c-15.17 0-30.341-11.378-30.341-30.341v-91.022h-60.684v91.022c0 15.17-15.17 30.341-30.34 30.341h-91.021v60.681h91.021c15.17 0 30.34 11.378 30.34 30.341v91.022h60.684v-91.022c0-15.171 15.17-30.341 30.341-30.341h91.022v-60.681z" />
<glyph unicode="&#xe91b;" glyph-name="Done" horiz-adv-x="1339" d="M1317.415 942.277c-23.631 23.631-70.892 23.631-94.523 0l-803.443-834.954-307.202 322.954c-23.631 23.631-70.893 23.631-94.524 0s-23.631-70.892 0-102.4l354.462-370.215c23.631-23.631 70.893-23.631 94.524 0l850.707 882.215c23.631 31.508 23.631 78.769 0 102.4z" />
<glyph unicode="&#xe91c;" glyph-name="Edit" horiz-adv-x="939" d="M878.933 902.4c-76.801 76.8-213.334 76.8-290.134 0l-537.599-537.6c-8.533 0-8.534-8.533-8.534-17.067l-42.667-298.667c0-8.533 0.001-17.067 8.534-25.6s8.532-8.533 17.065-8.533l290.135 42.667c17.067 0 25.599 17.067 25.599 34.133s-17.066 25.6-34.132 25.6l-256-34.133 25.599 204.8 213.333-213.333c8.533-8.533 8.535-8.533 17.068-8.533s17.065 0 17.065 8.533l537.601 537.6c42.667 42.667 59.733 93.867 59.733 145.067 17.067 51.2-8.533 102.4-42.667 145.067zM597.333 834.133l93.868-93.867-486.402-486.4-93.867 93.867 486.401 486.4zM324.266 125.867l-85.333 85.333 486.401 486.4 85.333-85.333-486.401-486.4zM853.333 654.933l-213.333 213.333c25.6 25.6 59.734 34.133 93.868 34.133 42.667 0 76.798-17.067 110.932-42.667 25.601-25.6 42.668-68.267 42.668-110.933 0-34.133-17.067-68.267-34.133-93.867z" />
<glyph unicode="&#xe91d;" glyph-name="Eggs" horiz-adv-x="1327" d="M284.46 231.822c-26.548 0-56.889 11.378-75.852 30.341s-30.341 45.511-30.341 75.852c0 3.793 0.001 7.585-3.792 11.378s-7.586 3.793-11.379 3.793c-3.793 0-7.584 0-11.377-3.793s-3.793-7.585-3.793-11.378c0-37.926 15.171-72.059 41.719-94.815 26.548-26.548 60.681-41.719 94.815-41.719 3.793 0 7.584 0 11.377 3.793s3.793 7.585 3.793 11.378c0 3.793 0 7.585-3.793 11.378-3.793 0-7.584 3.793-11.377 3.793zM1005.052 690.726c-11.378 0-22.756 0-30.341-3.793-45.511 132.741-144.119 273.067-265.481 273.067-72.059 0-178.252-60.682-250.311-231.349-41.719 37.926-87.23 56.889-132.741 56.889-75.852 0-147.911-53.096-208.593-151.704-49.304-79.644-83.437-182.044-83.437-257.896 0-68.267 26.548-132.741 68.266-182.044 45.511-49.304 106.193-83.437 174.459-94.815s140.327 3.793 197.216 37.926c60.681 34.133 102.4 87.23 125.156 151.704 26.548-11.378 56.889-15.17 83.437-18.963 0-11.378 0-18.963 0-26.548 0-79.644 34.133-159.289 94.815-216.178s140.326-91.022 223.763-91.022c83.437 0 166.874 30.341 223.763 91.022 60.681 56.889 94.815 136.533 94.815 216.178 3.793 151.704-128.948 447.526-314.785 447.526zM326.178 137.007c-64.474 0-128.948 26.548-174.459 68.267-45.511 45.511-72.059 106.193-72.059 166.874 0 68.267 30.341 163.081 75.852 238.933 53.096 83.437 113.778 132.741 170.667 132.741s121.363-49.304 170.667-132.741c45.511-75.851 75.852-170.666 75.852-238.933 0-64.474-26.548-125.156-72.059-166.874s-109.985-68.267-174.459-68.267zM614.415 326.637c3.793 15.17 3.793 30.341 3.793 45.511 0 75.852-30.341 178.252-83.437 257.896-11.378 22.756-26.548 41.719-45.511 60.681 41.719 109.985 125.156 223.763 216.178 223.763 72.059 0 170.667-83.437 223.763-242.726-121.363-53.096-212.385-231.348-238.933-364.089-22.756 3.793-49.304 11.378-75.852 18.963zM1005.052-22.281c-72.059 0-144.119 26.548-193.422 75.852-53.096 49.304-79.644 117.57-79.644 185.837 0 75.852 34.133 178.252 83.437 261.689 56.889 91.022 125.156 144.119 189.63 144.119s132.741-53.097 189.63-144.119c49.304-83.437 83.437-185.837 83.437-261.689 0-68.267-30.341-136.533-79.644-185.837s-121.363-75.852-193.422-75.852zM929.2 76.326c-30.341 0-56.889 11.378-79.644 34.133-18.963 18.963-30.341 49.304-34.133 79.644 0 3.793 0 7.585-3.793 11.378s-7.585 3.793-11.378 3.793c-3.793 0-7.585 0-11.378-3.793s-3.793-7.585-3.793-11.378c0-37.926 15.17-72.059 41.719-98.607s60.681-41.719 98.607-41.719c3.793 0 7.585 0 11.378 3.793s3.793 7.585 3.793 11.378c0 3.793 0 7.585-3.793 11.378 0 0-3.793 0-7.585 0z" />
<glyph unicode="&#xe91e;" glyph-name="EnvironmentSmall" horiz-adv-x="981" d="M85.296-36.267h849.070c25.6 0 46.929 21.333 46.929 46.933v4.267l-25.596 209.067c-4.267 25.6-21.333 42.667-46.933 42.667h-85.333l-68.271 298.667c-4.267 21.333-25.6 38.4-46.933 38.4h-392.531c-21.333 0-42.666-17.067-46.932-38.4l-68.271-298.667h-85.333c-25.6 0-42.665-17.067-46.932-42.667l-25.599-204.8c-4.267-29.867 17.066-51.2 42.666-55.467zM302.895 561.067c0 8.533 8.534 12.8 17.068 12.8h392.532c8.533 0 12.8-4.266 17.067-12.8l68.267-290.134h-563.199l68.266 290.134zM76.765 19.2l21.333 204.8c0 8.533 8.529 12.8 17.062 12.8h797.872c8.533 0 12.8-4.267 17.067-12.8l25.6-209.067c0-8.533-4.271-17.067-12.804-17.067h-853.333c-8.533 0-12.797 4.267-12.797 21.333 0 0 0-8.533 0 0zM597.295 522.667l12.804-187.733c0-17.067 12.796-29.867 29.862-29.867h55.471c17.067 0 29.862 17.067 29.862 34.133 0 4.267 0 4.267 0 8.533l-38.4 187.733c-4.267 12.8-12.796 25.6-29.862 25.6h-29.871c-17.067 0-29.867-17.067-29.867-38.4 0 8.533 0 8.533 0 0zM657.033 531.2l38.4-187.733h-55.471l-12.8 187.733h29.871zM460.766 305.067h102.396c17.067 0 34.133 17.067 34.133 34.133 0 0 0 0 0 4.267l-12.8 187.733c0 17.067-17.062 29.867-34.129 29.867h-72.538c-17.067 0-34.129-12.8-34.129-29.867l-17.070-187.733c0-21.333 12.803-38.4 34.136-38.4zM477.828 531.2h72.538l12.796-187.733h-102.396l17.062 187.733zM319.963 305.067c4.267 0 4.265 0 8.531 0h55.469c17.067 0 29.865 12.8 29.865 29.867l12.802 187.733c0 21.333-8.532 38.4-25.599 38.4 0 0 0.001 0-4.266 0h-29.87c-12.8 0-25.598-12.8-29.865-25.6l-38.401-187.733c-4.267-21.333 8.533-38.4 21.333-42.667zM366.895 531.2h29.87l-12.802-187.733h-55.469l38.401 187.733zM439.433 667.734c4.267-4.267 17.067-4.267 21.333 0 21.333 17.067 51.196 17.067 72.529 0 4.267-4.267 17.067-4.267 21.333 0s4.267 12.8 0 17.066c-34.133 25.6-85.333 25.6-119.467 0 0 0 0.004-12.8 4.271-17.066zM396.765 727.467c4.267-4.267 17.067-4.267 21.333 0 42.668 42.667 115.197 42.667 162.13 0 4.267-4.267 17.067-4.267 21.333 0s4.267 12.8 0 21.333c-55.467 51.2-149.329 51.2-204.797 0-4.267-12.8-4.267-21.333 0-21.333zM290.098 838.4c4.267-8.533 17.067-8.533 21.333 0 102.4 115.2 268.797 115.2 371.197 0 4.267-8.533 17.067-8.533 21.333 0s8.533 17.066 0 25.6c-115.2 128-302.934 128-418.134 0 0-8.533-4.262-12.8 4.271-25.6zM354.098 791.467c4.267-4.267 17.067-4.267 21.333 0 68.268 68.267 179.197 68.267 247.463 0 4.267-4.267 17.067-4.267 21.333 0s4.267 17.067 0 21.333c-81.067 81.067-209.062 81.067-290.13 0-4.267-4.267-4.267-21.333 0-21.333z" />
<glyph unicode="&#xe91f;" glyph-name="Error" horiz-adv-x="1222" d="M1205.664 97.858l-488.881 809.29c-19.819 33.032-52.848 52.852-92.487 52.852s-72.674-19.82-92.494-52.852l-488.874-809.29c-19.819-33.032-19.819-75.974 0-109.006s56.153-52.852 92.488-52.852h974.457c39.639 0 72.664 19.819 92.484 52.852 26.426 36.335 23.126 75.974 3.307 109.006zM1139.6 28.49c-6.606-9.91-13.216-16.516-26.429-16.516h-974.451c-9.91 0-19.817 6.606-26.423 16.516s-3.303 19.819 0 29.729l488.874 809.29c6.606 9.91 13.216 13.213 26.429 13.213s19.819-6.607 26.426-13.213l488.881-809.29c3.303-9.91 3.3-19.819-3.307-29.729zM640.813 213.471c-33.032 0-56.158-26.426-56.158-56.155s23.126-56.155 56.158-56.155c29.729 0 56.152 26.426 56.152 56.155s-26.423 56.155-56.152 56.155zM640.813 626.374c-29.729 0-56.158-16.516-56.158-42.942 0-82.581 9.913-201.497 9.913-287.381 0-23.123 19.819-29.729 46.245-29.729 19.819 0 42.939 9.91 42.939 29.729 0 82.581 9.913 201.497 9.913 287.381 3.303 29.729-23.123 42.942-52.852 42.942z" />
<glyph unicode="&#xe920;" glyph-name="Facebook" d="M512 960c-281.6 0-512-230.4-512-512s230.4-512 512-512c281.6 0 512 230.4 512 512s-230.4 512-512 512zM636.8 579.2c0-3.2-3.2-9.6-9.6-9.6h-35.2c-25.6 0-28.8-9.6-28.8-28.8v-41.6h64c3.2 0 3.2 0 6.4-3.2 0-3.2 3.2-3.2 3.2-6.4v-70.4c0-3.2-3.2-9.6-9.6-9.6h-64v-172.8c0-3.2-3.2-9.6-9.6-9.6h-73.6c-3.2 0-9.6 3.2-9.6 9.6v179.2h-54.4c-3.2 0-9.6 3.2-9.6 9.6v70.4c0 3.2 3.2 9.6 9.6 9.6h54.4v48c0 64 38.4 102.4 99.2 102.4h54.4c3.2 0 9.6-3.2 9.6-9.6v-67.2h3.2z" />
<glyph unicode="&#xe921;" glyph-name="FanSmall" d="M179.237 391.68c-5.12 25.6 0.003 51.2 15.363 71.679s35.837 35.841 61.437 35.841l189.437 25.6-71.675 174.079c-10.24 20.48-10.24 51.2 0 71.68s30.719 40.961 56.319 46.081c35.84 10.24 71.677 15.36 112.637 15.36s76.805-5.12 112.645-15.36c25.6-5.12 40.96-25.601 56.32-46.081 10.24-20.48 10.24-51.2 0-71.68l-71.685-174.079 189.44-25.6c25.6-5.12 46.085-15.361 61.445-35.841s20.475-46.079 15.355-71.679c-10.24-35.84-20.475-71.68-40.955-107.52-20.48-30.72-40.965-61.44-71.685-87.040-15.36-15.36-40.955-25.6-61.435-25.6-5.12 0-5.125 0-10.245 0-25.6 0-46.075 15.36-61.435 35.84l-117.765 148.48-117.756-148.48c-15.36-20.48-35.844-30.72-61.444-35.84-5.12 0-5.117 0-10.237 0-20.48 0-46.084 10.24-61.444 25.6-30.72 25.6-51.195 56.32-71.675 87.040-20.48 35.84-30.723 66.56-40.963 107.52zM486.437 468.479c0-25.599 15.363-46.079 40.964-51.199 5.12 0 5.115 0 10.235 0s5.12 0 10.24 0c20.48 5.12 40.96 25.6 40.96 51.199s-20.48 51.2-51.2 51.2c-30.718 0-51.198-25.6-51.198-51.2zM650.276 744.959c-5.12 5.12-10.235 15.36-20.475 15.36-30.72 10.24-61.445 15.36-92.165 15.36-30.718 0-61.441-5.12-92.161-15.36-10.24 0-15.355-10.24-20.475-15.36s-5.12-15.36 0-25.6l66.556-153.6c15.36 5.12 30.719 10.241 46.079 10.241s35.845-5.121 46.085-10.241l66.555 153.6c5.12 10.24 5.12 20.48 0 25.6zM701.476 243.2c5.12-5.12 15.36-10.24 20.48-10.24 10.24 0 15.36 0 25.6 10.24 20.48 20.48 40.96 46.080 56.32 71.68s25.605 56.32 35.845 87.040c0 10.24 0 15.36-5.12 25.6-5.12 5.12-10.24 10.24-20.48 10.24l-168.965 20.48c-5.12-35.84-20.48-66.56-46.080-81.92l102.4-133.12zM235.556 401.92c5.12-30.72 15.364-61.44 35.844-87.040 15.36-25.6 35.839-51.2 56.319-71.68 5.12-5.12 15.36-10.24 25.6-10.24s15.361 5.12 20.481 10.24l102.4 133.12c-25.6 20.48-46.081 46.080-46.081 81.92l-168.963-20.48c-10.24 0-15.362-5.12-20.482-10.24-5.12-10.24-5.118-15.36-5.118-25.6zM81.956 43.52h46.081l71.682 76.8c0 5.12-5.124 5.12-10.244 10.24-92.16 92.16-143.356 215.040-143.356 343.040s51.196 250.88 143.356 343.040c92.16 92.16 215.044 143.36 343.046 143.36 128 0 250.875-51.2 343.035-143.36s143.365-215.040 143.365-343.040c0-128-51.205-250.88-143.365-343.040-5.12-5.12-5.115-5.12-10.235-10.24l71.68-76.8h46.075c15.36 0 30.725-15.36 30.725-30.72s-15.365-30.72-30.725-30.72h-117.755c-15.36 0-30.72 15.36-30.72 30.72 0 10.24 10.235 25.6 20.475 25.6l-35.84 35.84c-81.92-61.44-184.315-97.28-291.835-97.28-107.521 0-204.805 35.84-291.845 97.28l-35.837-35.84c10.24-5.12 20.481-15.36 20.481-25.6 0-15.36-15.365-30.72-30.725-30.72h-117.756c-15.36 0-30.719 15.36-30.719 30.72 10.24 15.36 25.596 30.72 40.956 30.72zM962.601 468.479c0 235.52-189.445 424.961-424.965 424.961-235.518 0-424.961-189.441-424.961-424.961s189.443-424.959 424.961-424.959c235.52 0 424.965 189.44 424.965 424.959z" />
<glyph unicode="&#xe922;" glyph-name="Farm" horiz-adv-x="1182" d="M1173.662 792.616l-157.538 161.477c-7.877 7.877-23.631 7.877-31.508 0l-141.785-145.723-141.785 145.723c-7.877 7.877-23.631 7.877-31.508 0l-157.538-161.477c-3.938-3.938-7.877-11.816-7.877-15.754v-177.231h-291.446c-7.877 0-15.754-3.938-19.692-7.877l-185.108-244.185c-3.938-7.877-7.877-15.754-7.877-19.692v-330.831c0-11.815 11.815-23.631 23.631-23.631h1134.277c11.815 0 23.631 11.815 23.631 23.631v779.815c0 3.938-3.938 11.816-7.877 15.754zM543.508 642.954h133.908c11.815 0 23.631 11.815 23.631 23.631s-11.815 23.63-23.631 23.63h-133.908v74.831l137.846 137.846 137.846-137.846v-165.416h-271.754v43.323h-3.938zM634.092 20.677h-586.831v55.138h366.277c11.815 0 23.631 11.815 23.631 23.631s-11.815 23.631-23.631 23.631h-366.277v43.323h94.523c11.815 0 23.631 11.815 23.631 23.631s-11.815 23.631-23.631 23.631h-94.523v94.523h586.831v-287.508zM70.892 351.508l153.6 200.862h575.015l-153.6-200.862h-575.015zM819.2 146.708l-31.508-55.138v114.215l31.508-59.077zM803.446 272.738h82.708l-39.385-74.831-43.323 74.831zM838.892 20.677h-35.446l39.385 74.831 39.385-74.831h-43.323zM901.908 91.569l-31.508 55.138 31.508 55.138v-110.277zM1012.185 20.677h-66.954v275.692c0 11.815-11.815 23.631-23.631 23.631h-157.538c-11.815 0-23.631-11.815-23.631-23.631v-275.692h-63.015v299.323l165.415 216.615 165.415-216.615v-299.323h3.938zM1134.277 705.97h-74.831c-11.815 0-23.631-11.815-23.631-23.631s11.815-23.631 23.631-23.631h74.831v-66.954h-129.969c-11.815 0-23.631-11.815-23.631-23.63s11.815-23.631 23.631-23.631h129.969v-527.754h-78.769v311.138c0 3.938 0 11.815-3.938 15.754l-189.046 244.185v177.231l137.846 137.846 137.846-137.846v-59.077h-3.938zM456.862 166.4c-11.815 0-23.631-11.815-23.631-23.631s11.815-23.631 23.631-23.631c11.815 0 23.631 11.815 23.631 23.631s-11.815 23.631-23.631 23.631zM905.846 642.954c-11.815 0-23.631-11.816-23.631-23.631s11.815-23.63 23.631-23.63c11.815 0 23.631 11.815 23.631 23.63s-7.877 23.631-23.631 23.631z" />
<glyph unicode="&#xe923;" glyph-name="FCR" horiz-adv-x="1621" d="M887.462 635.733c-4.267-4.267-8.529-8.533-8.529-12.8-4.267-4.267-4.267-8.533-4.267-12.8s0-8.533 4.267-12.8c0-4.267 4.262-8.533 8.529-12.8s8.538-4.267 12.804-8.533c4.267 0 8.529-4.267 12.796-4.267s8.538 0 12.804 4.267c4.267 0 8.533 4.267 12.8 8.533l260.267 251.733v-827.733c0-4.267 0-8.533 4.267-12.8s4.262-8.533 8.529-12.8c4.267-4.267 8.538-4.267 12.804-8.533 4.267 0 8.533-4.267 12.8-4.267 8.533 0 17.067 4.267 25.6 8.533 8.533 8.533 8.529 17.067 12.796 25.6v827.733l260.271-251.734c8.533-8.533 17.067-8.533 25.6-8.533s17.067 4.267 25.6 8.533c4.262 4.267 4.262 8.533 8.529 12.8 0 4.267 4.271 8.534 4.271 12.8s-0.004 8.533-4.271 12.8c0 4.267-4.267 8.533-8.529 12.8l-320 311.467c-4.267 4.267-8.538 4.267-12.804 8.533-4.267 0-8.529 4.267-12.796 4.267s-8.538 0-12.804-4.267c-4.267 0-8.529-4.267-12.796-8.533l-328.538-307.2zM712.533 294.4c4.267 4.267 4.262 8.533 8.529 12.8s4.271 8.533 4.271 12.8c0 4.267-0.004 8.533-4.271 12.8 0 4.267-4.262 8.533-8.529 12.8s-8.538 4.267-12.804 8.533c-4.267 0-8.529 4.267-12.796 4.267s-8.538 0-12.804-4.267c-4.267 0-8.529-4.267-12.796-8.533l-260.271-251.733v827.733c0 4.267 0.001 8.533-4.265 12.8 0 4.267-4.265 8.533-8.531 12.8s-8.535 4.267-12.802 8.533c-4.267 0-8.53 4.267-12.797 4.267-8.533 0-17.071-4.267-25.604-8.534-8.533-8.533-12.797-17.066-12.797-25.6v-827.733l-260.266 251.733c-8.533 8.533-17.071 8.533-25.604 8.533s-17.066-4.267-25.599-8.533c-4.267-4.267-4.265-8.533-8.531-12.8 0-4.267-4.266-8.533-4.266-12.8s-0.001-8.533 4.266-12.8c0-4.267 4.265-8.533 8.531-12.8l324.266-311.467c4.267-4.267 8.535-4.267 12.802-8.533 4.267 0 8.535-4.267 12.802-4.267s8.53 0 12.797 4.267c4.267 0 8.535 4.267 12.802 8.533l324.268 307.2z" />
<glyph unicode="&#xe924;" glyph-name="FeedStorage" horiz-adv-x="1516" d="M1396.781 366.080c-36.864 0-65.536 16.384-65.536 40.96 0 20.48 28.672 40.96 65.536 40.96s65.54-16.384 65.54-40.96c0-24.576-28.676-40.96-65.54-40.96zM1396.781 419.328c-28.672 0-40.96-12.288-40.96-16.384s12.288-16.384 40.96-16.384c28.672 0 40.96 12.288 40.96 16.384s-12.288 16.384-40.96 16.384zM1445.933 267.776c-36.864 0-65.532 16.384-65.532 40.96 0 20.48 28.668 40.96 65.532 40.96s65.536-16.384 65.536-40.96c0-20.48-28.672-40.96-65.536-40.96zM1445.933 325.12c-28.672 0-40.96-12.288-40.96-16.384s12.288-16.384 40.96-16.384c28.672 0 40.96 12.288 40.96 16.384s-12.288 16.384-40.96 16.384zM1237.041 296.448c-36.864 0-65.54 16.384-65.54 40.96 0 20.48 28.676 40.96 65.54 40.96s65.532-16.384 65.532-40.96c0-24.576-28.668-40.96-65.532-40.96zM1237.041 349.696c-28.672 0-40.96-12.288-40.96-16.384s12.288-16.384 40.96-16.384c28.672 0 40.96 12.288 40.96 16.384 0 8.192-12.288 16.384-40.96 16.384zM1441.841 103.936c-36.864 0-65.54 16.384-65.54 40.96 0 20.48 28.676 40.96 65.54 40.96s65.532-16.384 65.532-40.96c0-24.576-28.668-40.96-65.532-40.96zM1441.841 157.184c-28.672 0-40.96-12.288-40.96-16.384s12.288-16.384 40.96-16.384c28.672 0 40.96 12.288 40.96 16.384s-16.384 16.384-40.96 16.384zM1314.861 189.952c-36.864 0-65.536 16.384-65.536 40.96 0 20.48 28.672 40.96 65.536 40.96s65.54-16.384 65.54-40.96c0-24.576-28.676-40.96-65.54-40.96zM1314.861 243.2c-28.672 0-40.96-12.288-40.96-16.384s12.288-16.384 40.96-16.384c28.672 0 40.96 12.288 40.96 16.384 0 8.192-16.384 16.384-40.96 16.384zM1146.925 394.752c-36.864 0-65.536 16.384-65.536 40.96 0 20.48 28.672 40.96 65.536 40.96s65.536-16.384 65.536-40.96c0-20.48-28.672-40.96-65.536-40.96zM1146.925 452.096c-28.672 0-40.96-12.288-40.96-16.384s16.384-16.384 40.96-16.384c28.672 0 40.96 12.288 40.96 16.384s-12.288 16.384-40.96 16.384zM1126.445 194.048c-36.864 0-65.536 16.384-65.536 40.96 0 20.48 28.672 40.96 65.536 40.96s65.536-16.384 65.536-40.96c0-24.576-28.672-40.96-65.536-40.96zM1126.445 247.296c-28.672 0-40.96-12.288-40.96-16.384s16.384-16.384 40.96-16.384c28.672 0 40.96 12.288 40.96 16.384s-16.384 16.384-40.96 16.384zM1257.521 83.456c-36.864 0-65.54 16.384-65.54 40.96 0 20.48 28.676 40.96 65.54 40.96s65.532-16.384 65.532-40.96c0-24.576-28.668-40.96-65.532-40.96zM1257.521 136.704c-28.672 0-40.96-12.288-40.96-16.384s16.384-16.384 40.96-16.384c28.672 0 40.96 12.288 40.96 16.384 0 8.192-16.384 16.384-40.96 16.384zM667.693 570.88l-4.092 8.191c-4.096 8.192-12.288 16.385-20.48 12.289s-16.388-12.288-12.292-20.48l4.096-8.192c16.384-65.536 8.192-131.072-24.576-188.416s-86.016-98.304-147.456-114.688c-16.384-4.096-32.768-8.192-49.152-8.192 40.96 20.48 86.016 49.152 114.688 94.208 4.096 8.192 4.096 20.48-4.096 24.576s-20.476 4.096-24.572-4.096c-45.056-69.632-143.361-102.4-163.841-106.496-20.48 4.096-40.961 12.288-57.345 24.576-20.48 12.288-36.866 28.672-53.25 45.056 8.192 0 16.383 0 24.575 0 45.056 0 102.402 4.096 155.65 24.576 8.191 4.096 12.291 12.288 12.291 24.576-4.096 8.192-12.293 12.288-24.581 12.288-77.824-28.672-172.029-24.576-196.605-20.48-8.192 16.384-16.383 32.768-24.575 49.152 20.48-4.096 40.96-8.192 61.44-12.288 8.192 0 16.384 4.096 20.48 16.384 0 8.192-4.097 20.48-16.385 20.48-28.672 4.096-57.343 8.192-86.015 16.384-4.096 0-12.289 0-16.385-4.096s-4.095-12.288-4.095-16.384c0-4.096-0.001-8.192 4.095-8.192 16.384-73.728 65.535-135.168 126.975-176.128 40.96-24.576 90.113-40.96 139.265-40.96 24.574 0 49.15 4.096 69.63 8.192 73.728 20.48 131.072 65.536 167.936 131.072s45.056 139.264 28.672 217.088zM540.721 488.96c-4.096 8.192-16.388 12.288-24.58 8.192-32.768-20.48-69.632-32.768-106.496-45.056-40.96-12.288-77.825-16.384-118.785-16.384-8.192 0-16.38-8.192-16.38-16.384s8.188-16.384 16.38-16.384c45.056 0 86.020 8.192 126.981 16.384 40.96 12.288 77.82 28.672 114.684 45.056 8.192 4.096 12.292 12.288 8.196 24.576zM1024.045 714.24c-12.288 45.056-57.344 65.535-81.92 69.631l-4.096 4.096c4.096 8.192 8.192 12.288 8.192 20.48 8.192 28.672 12.292 61.44 4.1 86.016-8.192 28.672-20.484 49.152-45.060 57.344-16.384 4.096-36.86 0-57.34-12.288-12.288 12.288-28.676 20.48-45.060 20.48s-32.768-8.192-45.056-20.48c-20.48 12.288-36.864 16.384-57.344 12.288-32.768-12.288-53.248-53.248-45.056-106.496 0-8.192 8.192-16.384 20.48-16.384 8.192 0 16.384 8.192 16.384 20.48-4.096 32.768 4.096 61.44 20.48 65.536 8.192 4.096 24.576-4.096 36.864-16.384 4.096-4.096 8.192-4.096 12.288-4.096s8.192 4.097 12.288 8.193c4.096 8.192 12.288 20.48 24.576 20.48s20.484-12.288 28.676-20.48c4.096-4.096 8.188-8.193 12.284-8.193s12.288 0 12.288 4.096c12.288 12.288 24.58 20.48 36.868 16.384 8.192-4.096 16.384-12.288 20.48-28.672s4.096-36.864 0-57.344c-40.96 49.152-110.596 65.536-167.94 36.864-12.288-8.192-28.668-16.383-36.86-28.671-36.864-49.152-122.884-122.88-241.668-167.936-86.014-32.768-221.184-61.439-360.448-12.287 12.288 24.576 40.959 73.728 65.535 98.304 8.192 8.192 8.192 20.48 0 24.576-8.192 8.192-16.383 8.192-24.575 0-24.576-24.576-49.151-65.537-65.535-90.113-8.192 20.48-16.385 49.152-16.385 77.824 0 8.192-8.193 16.384-16.385 16.384s-16.38-8.192-16.38-16.384c0-49.152 20.478-102.4 28.67-122.88-36.864-110.592-32.766-225.28 12.29-331.776 49.152-106.496 135.164-188.416 241.66-233.472 45.056-16.384 90.114-24.576 135.169-28.672l24.576-81.92h-8.192c-8.192 0-16.384-8.192-16.384-16.384s8.192-16.384 16.384-16.384h98.308c8.192 0 16.38 8.192 16.38 16.384s-8.188 16.384-16.38 16.384h-53.252l-24.576 81.92c16.384 0 32.768 4.096 49.152 4.096 69.632 12.288 139.264 40.96 196.608 90.112 8.192 4.096 8.192 16.384 4.096 24.576-8.192 8.192-16.384 8.192-24.576 4.096-110.592-90.112-253.952-110.592-380.928-61.44-98.304 36.864-176.129 114.688-221.185 212.992-40.96 94.208-49.148 196.608-16.38 294.911 57.344-20.48 114.686-28.671 172.030-28.671 212.991 0 401.407 126.976 475.135 221.184 4.096 8.192 16.384 12.288 24.576 20.48 49.152 28.672 110.592 4.096 139.264-45.056 12.288-24.576 12.288-53.248 4.096-77.824s-28.672-49.152-53.248-57.344l-32.768-16.384c-4.096-4.096-8.192-8.193-8.192-12.289s0-12.288 4.096-16.384c45.056-65.536 57.344-143.36 36.864-221.184-4.096-8.192-4.096-20.48-8.192-28.672-20.48-53.248-49.152-98.304-86.016-139.264-8.192-8.192-8.192-20.48 0-24.576 8.192-8.192 16.384-8.192 24.576 0 40.96 45.056 69.632 94.208 90.112 151.552 4.096 12.288 8.192 20.48 12.288 32.768 24.576 81.92 12.288 163.84-28.672 233.472l16.384 8.191c24.576 12.288 40.96 28.672 53.248 49.152 4.096 0 12.288 0 16.384 0 53.248 0 77.824 36.864 81.92 40.96 0-8.192 4.096-4.096 0 4.096zM942.125 693.76c4.096 16.384 8.196 32.767 8.196 49.151 12.288-4.096 32.768-16.384 40.96-32.768-12.288-4.096-24.58-16.384-49.156-16.384zM815.149 747.008c8.192 0 16.384 8.192 16.384 16.384s-8.192 16.385-16.384 16.385c-8.192 0-16.384-8.193-16.384-16.385 0-12.288 8.192-16.384 16.384-16.384z" />
<glyph unicode="&#xe925;" glyph-name="FeedTrolly" horiz-adv-x="1184" d="M979.213 275.2c-51.2 0-99.197-22.4-131.197-57.6l-64 22.4c16 9.6 28.8 19.2 41.6 28.8l272 252.8c28.8 3.2 51.2 25.6 51.2 57.6s-25.603 57.6-57.603 57.6h-60.8c-6.4 22.4-25.597 41.6-44.797 48 12.8 22.4 16 44.8 3.2 64-12.8 16-32 32-67.2 25.6 16 25.6 22.4 54.4 6.4 73.6-12.8 16-38.4 22.4-64 12.8 0 3.2 0 6.4-3.2 12.8-9.6 41.6-48 70.4-92.8 70.4-16 0-28.803-3.2-41.603-12.8-3.2 0-3.2 3.2-3.2 3.2-16 16-38.4 25.6-60.8 25.6-41.6 0-76.8-32-83.2-67.2-12.8 0-25.597-3.2-38.397-16s-16-28.8-12.8-48c-38.4 22.4-67.2 12.8-83.2-6.4-16-16-16.003-44.8-9.603-67.2-12.8 0-22.4-3.2-32-9.6-25.6-16-38.397-54.4-38.397-83.2-3.2-3.2-6.4-6.4-12.8-6.4-6.4-3.2-12.8-6.4-19.2-12.8h-25.602c-32 0-57.598-25.6-57.598-57.6 0-25.6 15.998-48 41.598-54.4l9.602-64c3.2-16 6.397-28.8 9.597-41.6l-220.797 83.2c-32 12.8-64-3.2-80-28.8-6.4-16-6.403-35.2-3.203-48s19.203-28.8 35.203-35.2l284.796-102.4v-278.4c0-38.4 35.2-73.6 76.8-73.6 19.2 0 38.4 6.4 51.2 22.4l208 208 144-51.2c0-3.2 0-3.2 0-6.4 0-96 76.8-169.6 172.8-169.6s176 76.8 176 172.8c-3.2 83.2-80 156.8-176 156.8zM953.616 67.2c16 3.2 32 16 38.4 35.2 9.6 19.2 3.197 41.6-9.603 57.6 28.8-3.2 51.203-28.8 51.203-57.6 0-32-25.6-57.6-57.6-57.6-16 0-32.003 6.4-41.603 19.2 6.4 0 16.003 3.2 19.203 3.2zM403.213 656c0 19.2 12.803 44.8 22.403 54.4 6.4 3.2 6.397 3.2 9.597 3.2 9.6-3.2 35.203-12.8 44.803 6.4 9.6 12.8 0 28.8-6.4 35.2-9.6 9.6-9.603 28.8-3.203 38.4 9.6 12.8 25.603 3.2 35.203-3.2l3.2-3.2c9.6-6.4 25.597-12.8 38.397-6.4 12.8 9.6 12.803 28.8 12.803 48 0 9.6-0.003 16 3.197 22.4 6.4 6.4 16.003 6.4 22.403 6.4s12.8 0 19.2 6.4l6.397 6.4v6.4c0 25.6 22.4 48 48 48 12.8 0 25.6-6.4 35.2-16 0 0 22.403-22.4 41.603-12.8 9.6 6.4 19.2 6.4 28.8 6.4 25.6 0 47.997-16 54.397-38.4 0-3.2 3.2-9.6 3.2-16l6.403-9.6 9.597-9.6c6.4-3.2 16-9.6 28.8-3.2 16 6.4 25.603 3.2 25.603 3.2 3.2-3.2 3.197-19.2-6.403-38.4-12.8-12.8-6.4-41.6-3.2-51.2l9.603-12.8 12.8 6.4c25.6 9.6 41.6 6.4 48-3.2 3.2-6.4 0-22.4-12.8-32-9.6-6.4-9.603-19.2-6.403-28.8l3.203-12.8h12.797c12.8-3.2 22.4-9.6 32-19.2h-592c9.6 3.2 12.8 9.6 12.8 19.2zM307.214 598.4h787.199c12.8 0 19.203-6.4 19.203-19.2s-6.403-19.2-19.203-19.2h-787.199c-12.8 0-19.199 6.4-19.199 19.2-3.2 9.6 6.399 19.2 19.199 19.2zM358.413 400c-12.8 19.2-22.397 38.4-25.597 64l-6.403 57.6h716.8l-243.197-220.8c-25.6-19.2-48.003-32-73.603-38.4l-368 137.6zM38.413 432c-3.2 6.4-3.2 12.8 0 19.2s12.803 12.8 22.403 12.8c3.2 0 6.398 0 6.398-3.2l876.802-323.2c9.6-3.2 16-16 12.8-25.6 0-3.2-3.2-3.2-3.2-6.4-6.4-3.2-12.803-6.4-19.203-3.2l-99.2 35.2c-3.2 0-6.397 0-9.597 0l-153.6 54.4c-3.2 0-3.2 3.2-6.4 3.2l-80 28.8c-3.2 0-6.403 3.2-6.403 3.2l-144 51.2c-3.2 3.2-3.197 3.2-6.397 3.2l-76.8 25.6h-3.2l-294.403 105.6c-9.6 9.6-12.8 12.8-16 19.2zM438.413 240l102.403-38.4-102.403-102.4v140.8zM425.616-19.2c-6.4-6.4-16-9.6-25.6-9.6-19.2 0-38.4 16-38.4 35.2v262.4l9.597-3.2 28.803-12.8v-185.6c0-9.6 6.4-16 16-22.4 9.6-3.2 22.4-3.2 28.8 6.4l137.597 134.4 41.603-16-198.4-188.8zM976.016-28.8c-73.6 0-131.2 54.4-134.4 124.8l41.597-16c9.6-41.6 48.003-73.6 92.803-73.6 54.4 0 96 41.6 96 96s-41.6 96-96 96c-16 0-32.003-3.2-44.803-12.8l-41.597 16c22.4 22.4 54.397 35.2 89.597 35.2 73.6 0 134.403-57.6 134.403-134.4-3.2-73.6-60.8-131.2-137.6-131.2z" />
<glyph unicode="&#xe926;" glyph-name="GridView" horiz-adv-x="1062" d="M34.148 960v-1024h1024v1024h-1024zM356.518-3.319h-261.69v261.689h261.69v-261.689zM356.518 319.052h-261.69v261.689h261.69v-261.689zM356.518 637.63h-261.69v261.689h261.69v-261.689zM675.097-3.319h-261.689v261.689h261.689v-261.689zM675.097 319.052h-261.689v261.689h261.689v-261.689zM675.097 637.63h-261.689v261.689h261.689v-261.689zM997.467-3.319h-261.689v261.689h261.689v-261.689zM997.467 319.052h-261.689v261.689h261.689v-261.689zM997.467 637.63h-261.689v261.689h261.689v-261.689z" />
<glyph unicode="&#xe927;" glyph-name="Healthcare" horiz-adv-x="977" d="M395.636 326.982h-60.51v60.509c0 9.309-9.309 18.618-18.618 18.618s-18.618-9.309-18.618-18.618v-60.509h-60.508c-9.309 0-18.62-9.309-18.62-18.618s9.31-18.618 18.62-18.618h60.508v-60.509c0-9.309 9.309-18.618 18.618-18.618s18.618 9.309 18.618 18.618v60.509h60.51c9.309 0 18.618 9.309 18.618 18.618s-9.309 18.618-18.618 18.618zM214.11 704c-9.309 0-18.62-9.31-18.62-18.619s9.31-18.618 18.62-18.618c9.309 0 18.618 9.309 18.618 18.618 4.655 9.309-4.654 18.619-18.618 18.619zM935.564 313.018c-46.545 74.473-144.291 102.4-218.764 60.509l-79.127-46.545v172.218c0 23.273-9.309 41.891-18.618 60.509l-97.745 134.982v55.855c23.273 9.309 41.891 32.582 41.891 55.855v93.091c0 32.582-27.927 60.509-60.509 60.509h-367.71c-32.582 0-60.508-27.927-60.508-60.509v-93.091c0-27.927 18.618-46.545 41.89-55.855v-55.855l-97.746-134.982c-13.964-18.618-18.618-37.236-18.618-60.509v-386.327c0-55.855 46.546-97.745 97.746-97.745h321.163c46.545-74.473 139.636-102.4 218.764-55.855l242.036 139.636c74.473 37.236 102.4 134.982 55.855 214.109zM116.364 894.836c0 9.309 9.309 18.619 18.618 18.619h358.4c9.309 0 18.618-9.31 18.618-18.619v-93.091c0-9.309-9.309-18.618-18.618-18.618h-358.4c-9.309 0-18.618 9.309-18.618 18.618v93.091zM46.545 531.781l102.399 139.636c4.655 4.655 4.655 9.309 4.655 13.964v60.509h321.164v-41.89h-181.528c-9.309 0-18.618-9.31-18.618-18.619s9.309-18.618 18.618-18.618h190.837l97.745-130.328c4.655-9.309 9.309-18.618 9.309-27.927h-558.546c4.655 4.655 9.31 13.964 13.964 23.273zM93.091 47.709c-32.582 0-60.51 27.927-60.51 60.509v18.618h363.055c-4.655-27.927-4.655-55.855 0-79.127h-302.545zM414.254 168.727h-377.018v293.236h558.546v-162.909l-121.018-69.818c-27.928-13.964-46.546-37.236-60.51-60.509zM614.4-12.8c-55.855-32.582-130.327-13.964-162.91 41.891s-13.962 130.327 41.892 162.909l107.055 60.509 121.018-209.455-107.055-55.855zM856.436 126.836l-97.745-55.855-121.018 209.455 97.745 55.855c55.855 32.582 130.327 13.964 162.909-41.891 37.236-60.509 13.964-134.982-41.891-167.564z" />
<glyph unicode="&#xe928;" glyph-name="Hide" horiz-adv-x="1418" d="M1335.138 475.569c-78.769 94.523-181.169 181.169-291.446 244.185l189.046 165.415c15.754 15.754 15.754 39.385 0 63.015-15.754 15.754-47.262 15.754-70.892 0l-204.8-181.169c-86.646 39.385-189.047 63.015-283.57 70.892-362.338 0-645.907-346.585-661.661-362.338s-15.754-31.508 0-47.262c78.769-94.523 181.169-181.169 291.446-244.185l-189.047-165.415c-15.754-15.754-15.754-39.385 0-63.015 15.754-15.754 47.262-15.754 70.893 0l204.799 181.169c86.646-39.385 189.046-63.015 283.569-70.892 362.339 0 645.908 346.585 661.662 362.338 7.877 15.754 7.877 31.508 0 47.262zM374.153 247.138c-94.523 55.138-181.169 126.031-259.938 204.8 70.892 78.769 299.323 299.323 559.262 299.323 70.892 0 149.662-15.754 212.678-47.262l-86.646-70.892c-110.277 63.015-259.939 39.385-330.832-63.015-55.138-70.892-55.138-165.415 0-236.308l-94.523-86.646zM799.508 507.077c7.877-15.754 15.754-39.385 15.754-55.138 0-70.892-63.016-126.031-141.785-126.031-23.631 0-39.385 7.877-63.015 15.754l189.047 165.415zM547.445 396.8c-7.877 15.754-15.754 39.385-15.754 55.138 0 70.892 63.015 126.031 141.785 126.031 23.631 0 39.385-7.877 63.016-15.754l-189.047-165.415zM673.476 152.615c-70.892 0-149.661 15.754-212.676 47.262l86.645 70.892c110.277-63.015 259.939-39.385 330.832 63.015 55.138 70.892 55.138 165.415 0 236.308l102.4 94.523c94.523-55.138 181.169-126.031 259.938-204.8-78.769-86.646-307.2-307.2-567.139-307.2z" />
<glyph unicode="&#xe929;" glyph-name="Hospital" horiz-adv-x="1142" d="M929.477 215.631h-137.846c-3.938 0-7.877 0-11.815-3.938s-3.938-7.877-3.938-11.815v-137.846c0-3.938 0-7.877 3.938-11.815s7.877-3.938 11.815-3.938h137.846c3.938 0 7.877 0 11.815 3.938s3.938 7.877 3.938 11.815v137.846c0 3.938 0 7.877-3.938 11.815s-7.877 3.938-11.815 3.938zM913.723 77.785h-106.338v106.338h106.338v-106.338zM342.647 215.631h-137.846c-3.938 0-7.877 0-11.815-3.938s-3.937-7.877-3.937-11.815v-137.846c0-3.938-0.001-7.877 3.937-11.815s7.877-3.938 11.815-3.938h137.846c3.938 0 7.877 0 11.815 3.938s3.94 7.877 3.94 11.815v137.846c0 3.938-0.002 7.877-3.94 11.815s-7.877 3.938-11.815 3.938zM326.894 77.785h-106.339v106.338h106.339v-106.338zM929.477 412.554h-137.846c-3.938 0-7.877 0-11.815-3.938s-3.938-7.877-3.938-11.815v-137.846c0-3.938 0-7.877 3.938-11.815s7.877-3.938 11.815-3.938h137.846c3.938 0 7.877 0 11.815 3.938s3.938 7.877 3.938 11.815v137.846c0 11.815-3.938 15.754-15.754 15.754zM913.723 274.708h-106.338v110.277h106.338v-110.277zM732.554 412.554h-137.846c-3.938 0-7.877 0-11.815-3.938s-3.938-7.877-3.938-11.815v-137.846c0-3.938 0-7.877 3.938-11.815s7.877-3.938 11.815-3.938h137.846c3.938 0 7.877 0 11.815 3.938s3.938 7.877 3.938 11.815v137.846c0 11.815-3.938 15.754-15.754 15.754zM720.738 274.708h-106.338v110.277h106.338v-110.277zM535.631 412.554h-137.846c-3.938 0-7.875 0-11.813-3.938s-3.94-7.877-3.94-11.815v-137.846c0-3.938 0.002-7.877 3.94-11.815s7.875-3.938 11.813-3.938h137.846c3.938 0 7.877 0 11.815 3.938s3.938 7.877 3.938 11.815v137.846c0 3.938-3.938 7.877-3.938 11.815s-3.938 3.938-11.815 3.938zM523.815 274.708h-106.338v110.277h106.338v-110.277zM342.647 412.554h-137.846c-3.938 0-7.877 0-11.815-3.938s-3.937-7.877-3.937-11.815v-137.846c0-3.938-0.001-7.877 3.937-11.815s7.877-3.938 11.815-3.938h137.846c3.938 0 7.877 0 11.815 3.938s3.94 7.877 3.94 11.815v137.846c-3.938 11.815-7.878 15.754-15.755 15.754zM326.894 274.708h-106.339v110.277h106.339v-110.277zM929.477 648.862h-137.846c-3.938 0-7.877 0-11.815-3.939s-3.938-7.877-3.938-11.815v-137.847c0-3.938 0-7.877 3.938-11.815s7.877-3.938 11.815-3.938h137.846c3.938 0 7.877 0 11.815 3.938s3.938 7.877 3.938 11.815v137.847c0 3.938 0 7.877-3.938 11.815s-7.877 3.939-11.815 3.939zM913.723 511.015h-106.338v106.338h106.338v-106.338zM732.554 648.862h-137.846c-3.938 0-7.877 0-11.815-3.939s-3.938-7.877-3.938-11.815v-137.847c0-3.938 0-7.877 3.938-11.815s7.877-3.938 11.815-3.938h137.846c3.938 0 7.877 0 11.815 3.938s3.938 7.877 3.938 11.815v137.847c0 3.938 0 7.877-3.938 11.815s-7.877 3.939-11.815 3.939zM720.738 511.015h-106.338v106.338h106.338v-106.338zM535.631 648.862h-137.846c-3.938 0-7.875 0-11.813-3.939s-3.94-7.877-3.94-11.815v-137.847c0-3.938 0.002-7.877 3.94-11.815s7.875-3.938 11.813-3.938h137.846c3.938 0 7.877 0 11.815 3.938s3.938 7.877 3.938 11.815v137.847c0 11.815-7.877 15.754-15.754 15.754zM523.815 511.015h-106.338v106.338h106.338v-106.338zM342.647 648.862h-137.846c-3.938 0-7.877 0-11.815-3.939s-3.937-7.877-3.937-11.815v-137.847c0-3.938-0.001-7.877 3.937-11.815s7.877-3.938 11.815-3.938h137.846c3.938 0 7.877 0 11.815 3.938s3.94 7.877 3.94 11.815v137.847c0 3.938-0.002 7.877-3.94 11.815s-7.877 3.939-11.815 3.939zM326.894 511.015h-106.339v106.338h106.339v-106.338zM1126.4-44.308h-43.323v768c0 3.938-3.938 7.877-7.877 7.877h-358.4v204.799c0 15.754-11.815 23.631-27.569 23.631h-55.138c-23.631 0-23.631-15.754-23.631-19.692v-70.892h-90.585v66.953c0 15.754-11.815 23.631-27.569 23.631h-55.138c-23.631 0-23.631-15.754-23.631-19.692v-204.8h-354.462c-3.938 0-7.875-3.938-7.875-7.876v-768h-43.325c-3.938 0-7.877-3.938-7.877-7.877s3.939-7.877 7.877-7.877h1126.4c3.938 0 7.877 3.938 7.877 7.877-3.938 0-7.877 3.938-15.754 3.938zM433.231 719.753v216.616c0 0 0 3.939 7.877 3.939h55.138c0 0 7.877 0 7.877-7.877v-74.831c0-3.938 3.938-7.876 7.877-7.876h106.338c3.938 0 7.877 3.938 7.877 7.876v78.769c0 3.938 0 3.939 7.877 3.939h55.138c0 0 7.877 0 7.877-7.877v-248.123c0-3.938-3.938-11.815-7.877-11.815h-55.138c-3.938 0-7.877 7.877-7.877 11.815v74.83c0 3.938-3.938 7.878-7.877 7.878h-110.277c-3.938 0-3.938 0-7.877-3.939 0 0-3.938-3.939-3.938-7.877v-78.769c0-3.938-3.938-7.876-7.877-7.876h-55.138c-3.938 0-7.877 7.876-7.877 11.815v39.385h7.877zM610.462 759.138v-27.568h-90.585v27.568h90.585zM389.908-44.308h-319.014v51.2h319.014v-51.2zM724.677-48.246h-149.662v157.538c0 3.938-3.938 7.877-7.877 7.877s-7.877-3.938-7.877-7.877v-157.538h-149.662v252.062h149.662v-27.569c0-3.938 3.938-7.877 7.877-7.877s7.877 3.938 7.877 7.877v27.569h149.662v-252.062zM1063.385 22.646h-27.569c-3.938 0-7.877-3.938-7.877-7.877s3.938-7.877 7.877-7.877h27.569v-51.2h-319.015v51.2h224.492c3.938 0 7.877 3.938 7.877 7.877s-3.938 7.877-7.877 7.877h-224.492v192.985c0 3.938-3.938 7.877-7.877 7.877h-338.708c-3.938 0-7.876-3.938-7.876-7.877v-192.985h-319.014v693.169h346.583v-19.692c0-15.754 11.815-31.507 23.631-31.507h55.138c15.754 0 27.569 11.816 27.569 27.57v27.568h90.585v-19.692c0-15.754 11.815-31.507 23.631-31.507h55.138c15.754 0 27.569 11.815 27.569 27.568v23.631h346.585v-697.107h-3.938zM1126.4-44.308h-43.323v768c0 3.938-3.938 7.877-7.877 7.877h-358.4v204.799c0 15.754-11.815 23.631-27.569 23.631h-55.138c-23.631 0-23.631-15.754-23.631-19.692v-70.892h-90.585v66.953c0 15.754-11.815 23.631-27.569 23.631h-55.138c-23.631 0-23.631-15.754-23.631-19.692v-204.8h-354.462c-3.938 0-7.875-3.938-7.875-7.876v-768h-43.325c-3.938 0-7.877-3.938-7.877-7.877s3.939-7.877 7.877-7.877h1126.4c3.938 0 7.877 3.938 7.877 7.877-3.938 0-7.877 3.938-15.754 3.938zM433.231 719.753v216.616c0 0 0 3.939 7.877 3.939h55.138c0 0 7.877 0 7.877-7.877v-74.831c0-3.938 3.938-7.876 7.877-7.876h106.338c3.938 0 7.877 3.938 7.877 7.876v78.769c0 3.938 0 3.939 7.877 3.939h55.138c0 0 7.877 0 7.877-7.877v-248.123c0-3.938-3.938-11.815-7.877-11.815h-55.138c-3.938 0-7.877 7.877-7.877 11.815v74.83c0 3.938-3.938 7.878-7.877 7.878h-110.277c-3.938 0-3.938 0-7.877-3.939 0 0-3.938-3.939-3.938-7.877v-78.769c0-3.938-3.938-7.876-7.877-7.876h-55.138c-3.938 0-7.877 7.876-7.877 11.815v39.385h7.877zM610.462 759.138v-27.568h-90.585v27.568h90.585zM389.908-44.308h-319.014v51.2h319.014v-51.2zM724.677-48.246h-149.662v157.538c0 3.938-3.938 7.877-7.877 7.877s-7.877-3.938-7.877-7.877v-157.538h-149.662v252.062h149.662v-27.569c0-3.938 3.938-7.877 7.877-7.877s7.877 3.938 7.877 7.877v27.569h149.662v-252.062zM1063.385 22.646h-27.569c-3.938 0-7.877-3.938-7.877-7.877s3.938-7.877 7.877-7.877h27.569v-51.2h-319.015v51.2h224.492c3.938 0 7.877 3.938 7.877 7.877s-3.938 7.877-7.877 7.877h-224.492v192.985c0 3.938-3.938 7.877-7.877 7.877h-338.708c-3.938 0-7.876-3.938-7.876-7.877v-192.985h-319.014v693.169h346.583v-19.692c0-15.754 11.815-31.507 23.631-31.507h55.138c15.754 0 27.569 11.816 27.569 27.57v27.568h90.585v-19.692c0-15.754 11.815-31.507 23.631-31.507h55.138c15.754 0 27.569 11.815 27.569 27.568v23.631h346.585v-697.107h-3.938z" />
<glyph unicode="&#xe92a;" glyph-name="HR" d="M957.217 568.209h-62.33c-8.904 31.165-22.261 62.33-35.617 89.043l44.522 44.522c17.809 17.809 17.809 48.974 0 66.783l-89.043 89.043c-17.809 17.809-48.974 17.809-66.783 0l-44.522-44.522c-26.713 17.809-57.878 26.713-89.043 35.617v62.331c0 26.713-22.261 48.973-48.974 48.973h-124.66c-26.713 0-48.973-22.26-48.973-48.973v-62.331c-31.165-8.904-62.33-22.26-89.043-35.617l-44.522 44.522c-17.809 17.809-48.974 17.809-66.783 0l-89.043-89.043c-17.809-17.809-17.809-48.974 0-66.783l44.522-44.522c-17.809-26.713-26.715-57.878-35.62-89.043h-62.329c-26.713 0-48.976-22.261-48.976-48.974v-124.661c0-26.713 22.263-48.974 48.976-48.974h62.329c8.904-31.165 22.263-62.33 35.62-89.043l-44.522-44.522c-17.809-17.809-17.809-48.974 0-66.783l89.043-89.043c17.809-17.809 48.974-17.809 66.783 0l44.522 44.522c26.713-17.809 57.878-26.713 89.043-35.617v-62.33c0-26.713 22.26-48.974 48.973-48.974h124.66c26.713 0 48.974 22.261 48.974 48.974v62.33c31.165 8.904 62.33 22.261 89.043 35.617l44.522-44.522c17.809-17.809 48.974-17.809 66.783 0l89.043 89.043c17.809 17.809 17.809 48.974 0 66.783l-44.522 44.522c17.809 26.713 26.713 57.878 35.617 89.043h62.33c26.713 0 48.974 22.261 48.974 48.974v124.661c0 31.165-22.261 48.974-48.974 48.974zM672.278 122.991c-13.357-8.904-31.165-13.357-48.974-22.261v106.852h-31.165v-115.757h-4.452c-8.904 0-13.357-8.904-13.357-13.357v-75.687c0-8.904-8.904-17.809-17.809-17.809h-124.66c-8.904 0-17.807 8.904-17.807 17.809v75.687c0 8.904-4.454 13.357-13.359 13.357h-4.451v115.757h-31.166v-102.4c-17.809 4.452-31.164 13.357-48.973 22.261v222.609l13.356 22.261 93.495 40.070 53.426-53.426v-89.043h31.165v89.043l48.974 53.426 93.496-40.070 13.357-22.261v-227.061h8.904zM467.478 617.183h66.783c8.904-17.809 26.713-26.713 44.522-31.165v-17.809c0-44.522-22.261-93.496-80.139-93.496s-80.138 48.974-80.138 93.496v17.809c22.261 4.452 40.069 13.356 48.973 31.165zM422.957 621.635v71.234c22.261 17.809 48.974 22.261 80.139 22.261 26.713 0 57.878-8.904 80.139-22.261v-71.234c-8.904 0-17.809 4.452-17.809 13.357s-8.904 17.809-17.809 17.809h-93.496c-8.904 0-17.806-8.904-17.806-17.809s-8.907-13.357-13.359-13.357zM543.165 430.191l-44.522-44.522-44.522 44.522 4.452 17.809c13.357-4.452 26.713-8.904 40.070-8.904s26.713 4.452 40.070 8.904l4.452-17.809zM975.026 399.026c0-8.904-8.904-17.809-17.809-17.809h-75.687c-8.904 0-13.357-4.452-13.357-13.357-8.904-35.617-22.261-71.235-44.522-106.852-4.452-4.452-4.452-13.357 4.452-17.809l53.426-53.426c4.452-4.452 4.452-17.809 0-22.261l-89.043-89.043c-4.452-4.452-17.809-4.452-22.261 0l-53.426 53.426c-4.452 4.452-4.452 4.452-8.904 4.452v209.252c0 4.452 0 4.452 0 8.904l-17.809 31.165c0 4.452-4.452 4.452-8.904 8.904l-106.852 44.522-8.904 26.713c26.713 22.261 44.522 57.879 44.522 102.4v129.113c0 4.452 0 8.904-4.452 13.357-31.165 26.713-66.783 40.070-106.852 35.617-40.070 0-75.685-13.357-106.85-35.617-4.452-4.452-4.454-8.904-4.454-13.357v-124.661c0-44.522 17.809-80.139 44.522-102.4l-8.905-26.713-102.4-44.522c-4.452 0-4.453-4.452-8.905-8.904l-17.807-31.165c0-4.452 0-4.452 0-8.904v-209.252c-4.452 0-8.905 0-8.905-4.452l-53.427-53.426c-4.452-4.452-17.809-4.452-22.261 0l-89.043 89.043c-4.452 4.452-4.452 17.809 0 22.261l53.427 53.426c4.452 4.452 4.451 13.357 4.451 17.809-17.809 31.165-35.617 66.783-44.522 106.852 0 8.904-8.904 13.357-13.356 13.357h-75.687c-8.904 0-17.807 8.904-17.807 17.809v124.661c0 8.904 8.903 17.809 17.807 17.809h75.687c8.904 0 13.356 4.452 13.356 13.356 8.904 35.617 22.261 71.235 44.522 106.853 4.452 4.452 4.453 13.356-4.451 17.808l-53.427 53.426c-4.452 4.452-4.452 17.809 0 22.261l89.043 89.043c4.452 4.452 17.809 4.452 22.261 0l53.427-53.426c4.452-4.452 13.358-4.452 17.81-4.452 31.165 17.809 66.782 35.617 102.4 44.522 8.904 0 13.356 8.904 13.356 13.356v75.687c0 8.904 8.906 17.808 17.81 17.808h124.659c8.904 0 17.809-8.904 17.809-17.808v-75.687c0-8.904 4.452-13.356 13.357-13.356 35.617-8.904 71.235-22.261 106.852-44.522 4.452-4.452 13.357-4.453 17.809 4.452l53.426 53.426c4.452 4.452 17.809 4.452 22.261 0l89.043-89.043c4.452-4.452 4.452-17.809 0-22.261l-53.426-53.426c-4.452-4.452-4.452-13.356-4.452-17.808 17.809-31.165 35.617-66.783 44.522-106.853 0-8.904 8.904-13.356 13.357-13.356h75.687c8.904 0 17.809-8.905 17.809-17.809v-129.113zM926.052 474.713h-31.165v-31.165h31.165v31.165zM106.853 474.713h-31.166v-31.165h31.166v31.165zM329.462 541.496l22.261 22.261-62.331 62.33c-4.452 4.452-17.809 4.452-22.261 0l-62.329-62.33 22.261-22.261 35.617 35.617v-89.044c0 0 0 0 0-4.452 0-8.904-8.905-13.357-17.81-13.357h-111.304v-31.165h111.304c0 0 0.002 0 4.454 0 26.713 0 44.522 22.261 44.522 48.974v89.044l35.617-35.617zM752.417 474.713c-8.904 0-17.809 8.904-17.809 17.809v84.592l31.165-35.617 22.261 22.261-57.878 62.33c-4.452 4.452-8.904 4.453-13.357 4.453s-8.904 0-13.357-4.453l-62.33-62.33 22.261-22.261 35.617 35.617v-89.044c0 0 0 0 0-4.452 0-26.713 22.261-44.522 48.974-44.522h111.304v35.617h-106.852z" />
<glyph unicode="&#xe92b;" glyph-name="Labor" horiz-adv-x="834" d="M724.4 307.674c34.133-26.548 49.304-98.607 53.096-125.156l26.548-193.422 26.548 3.793-26.548 193.422c0 3.793-15.17 106.193-64.474 144.119-15.17 11.378-34.133 18.963-53.096 26.548 0 0-3.793 0-3.793 3.793l-11.378 3.793c-15.17 7.585-34.133 11.378-53.096 18.963l-11.378 3.793h-3.793c-26.548 7.585-53.096 15.17-64.474 18.963v26.548c41.719 30.341 64.474 75.852 64.474 125.156v22.756c3.793 0 7.585-3.793 15.17-3.793 22.756 0 41.719 18.963 41.719 41.719v37.926c0 11.378-3.793 18.963-11.378 26.549 3.793 7.585 7.585 15.171 7.585 22.756v15.17c0 11.378-3.793 22.755-11.378 30.34-3.793 3.793-7.585 7.586-15.17 7.586-3.793 37.926-18.963 144.119-113.778 185.837-22.756 11.378-49.304 15.17-75.852 15.17h-7.585c-26.548 0-49.304-3.792-75.852-11.377-102.4-37.926-121.363-151.704-125.156-193.422-3.793 0-11.378-3.793-15.17-7.586-7.585-7.585-11.378-18.962-11.378-30.34v-15.17c0-7.585 3.793-15.17 7.585-22.756-7.585-7.585-11.378-15.171-11.378-26.549v-37.926c0-22.756 18.963-41.718 41.719-41.718 3.793 0 11.377 0 15.17 3.793v-22.756c0-49.304 22.756-94.815 64.475-125.156v-30.341c-49.304-11.378-94.816-26.548-140.327-45.511-18.963-7.585-37.926-18.963-56.889-30.341-49.304-37.926-64.474-140.326-64.474-144.119l-26.548-193.422 26.548-3.793 26.548 193.422c3.793 26.548 18.963 98.607 53.097 125.156 11.378 7.585 22.756 15.17 34.133 18.963v-117.57c-18.963-7.585-45.511-26.548-45.511-72.059v-147.911c0-7.585 7.585-15.17 15.17-15.17h580.267c7.585 0 15.17 7.585 15.17 15.17v147.911c0 41.719-26.548 64.474-45.511 72.059v117.57c7.585 0 18.963-3.793 30.341-11.378zM633.378 656.593v-37.926c0-7.585-7.585-15.17-15.17-11.377-7.585 0-11.378 7.585-11.378 11.377v37.926c0 7.585 3.793 15.17 11.378 15.17s15.17-7.585 15.17-15.17zM451.334 937.244c15.17 0 34.133-3.792 49.304-11.377v-68.266c-11.378-15.17-26.548-26.549-49.304-26.549v106.192zM375.481 929.66c15.171 3.793 30.341 7.585 49.304 7.585v-106.192c-18.963 0-37.926 11.378-49.304 26.549v72.059zM261.704 618.667c0-7.585-7.585-15.17-15.17-11.377-7.585 0-11.378 7.585-11.378 11.377v37.926c0 7.585 3.793 15.17 11.378 15.17s15.17-3.792 15.17-11.377c0 0 0 0 0-3.793v-37.926zM246.534 698.311c-3.793 0-3.793 0-7.586 0-3.793 3.793-3.792 7.584-3.792 11.377v15.172c0 3.793 0 7.585 3.792 11.377 0 0 0 0 3.793 0h3.793c7.585 0 15.17 7.585 15.17 15.17s0 125.156 91.022 170.667v-64.473c0-3.793 0-3.793 0-3.793s22.756-45.511 87.23-45.511c64.474 0 87.23 45.511 87.23 45.511v60.682c79.644-49.304 79.644-159.29 79.644-163.082 0-7.585 7.585-15.17 15.17-15.17h3.793c3.793-3.793 3.793-7.585 3.793-11.377v-15.172c0-3.793 0-7.584-3.793-11.377-11.378 3.793-26.548 0-37.926-11.377h-314.786c-7.585 3.793-15.17 11.377-26.548 11.377zM288.252 557.985v98.607h292.030v-98.607c0-68.267-56.889-125.156-125.156-125.156h-37.926c-72.059 0-128.949 56.889-128.949 125.156zM515.808 417.659v-18.963l-83.437-106.193-83.438 106.193v18.963c18.963-7.585 41.719-15.17 64.475-15.17h37.926c22.756 3.793 41.719 7.585 64.474 15.17zM273.081 360.77c26.548 7.585 45.511 15.17 56.889 15.17l102.401-128.948 98.607 128.948c11.378-3.793 34.133-7.585 60.681-15.17v-151.704h-318.578v151.704zM709.23 140.8v-136.533h-553.719v136.533c0 41.719 30.341 45.511 34.134 45.511 7.585 0 11.377 7.585 11.377 11.378v136.533c15.17 7.585 30.341 11.378 45.512 15.17v-159.289c0-7.585 7.585-15.17 15.17-15.17h345.126c7.585 0 15.17 7.585 15.17 15.17v159.289l45.511-15.17v-136.533c0-7.585 3.793-11.378 11.378-11.378 0 0 30.341-3.793 30.341-45.511zM603.037 167.348h75.852v-37.926h-75.852v37.926zM185.852 167.348h75.852v-37.926h-75.852v37.926z" />
<glyph unicode="&#xe92c;" glyph-name="LabTest" horiz-adv-x="776" d="M766.476 72.533l-220.318 527.515c-12.412 27.927-18.612 58.957-18.612 93.091v139.636c0 15.515 6.2 27.928 18.612 40.34s21.721 31.030 21.721 49.648v18.618c0 12.412-9.309 18.618-21.721 18.618h-285.477c-12.412 0-21.72-9.309-21.72-18.618v-18.618c0-18.618 6.205-34.133 21.72-49.648 12.412-9.309 18.621-24.825 18.621-40.34v-139.636c0-31.030-6.209-62.060-18.621-93.091l-62.061-145.842-161.356-381.673c-12.412-31.030-9.308-65.164 9.311-93.091s49.647-43.442 83.78-43.442h543.030c34.133 0 65.164 15.515 83.782 43.442s21.721 62.061 9.309 93.091zM294.818 584.533c15.516 34.133 21.719 71.369 21.719 105.503v139.636c0 24.824-9.313 49.649-27.931 68.267-6.206 6.206-9.303 12.412-9.303 18.618h245.137c0-6.206-3.106-15.515-9.312-18.618-18.618-18.618-27.924-43.443-27.924-68.267v-139.636c0-37.236 6.206-71.369 21.721-105.503l49.652-117.915h-310.304l46.545 117.915zM723.031 1.164c-12.412-15.515-31.027-24.824-49.645-24.824h-543.030c-21.721 0-40.342 9.309-49.652 24.824-9.309 12.412-12.414 27.927-9.311 40.339h34.136c12.412 0 21.72 9.309 21.72 18.618s-9.308 18.618-21.72 18.618h-18.621l24.826 55.855h34.136c12.412 0 21.72 9.309 21.72 18.618 0 12.412-9.308 18.618-21.72 18.618h-18.621l24.826 55.855h34.136c12.412 0 21.72 9.309 21.72 18.618 0 12.412-9.308 18.618-21.72 18.618h-18.621l24.826 55.855h37.235c12.412 0 18.621 9.309 18.621 18.618 0 12.412-9.312 18.618-18.621 18.618h-18.621l24.826 55.855h344.439l155.152-369.261c0-6.206-3.106-24.824-12.415-43.442zM648.561 81.842c-3.103 9.309-12.415 12.412-18.621 9.309s-12.406-12.412-9.303-18.618c3.103-6.206 9.309-9.309 15.515-9.309 3.103 0 3.1 0 6.203 0s9.309 9.309 6.206 18.618zM645.455 150.109l-80.676 176.873c-3.103 9.309-18.621 15.515-27.93 12.412-12.412-3.103-15.512-15.515-12.409-27.927l80.682-176.873c3.103-9.309 12.409-12.412 21.718-12.412 3.103 0 6.209 0 9.312 0 9.309 6.206 15.509 18.618 9.303 27.927z" />
<glyph unicode="&#xe92d;" glyph-name="LeftLarge" horiz-adv-x="602" d="M493.926 947.953l48.191-48.188c6.024-6.024 12.044-12.046 12.044-24.094 0-6.024-6.021-18.071-12.044-24.095l-367.438-379.483 367.438-379.482c6.024-6.024 12.044-12.047 12.044-24.094s-6.021-18.071-12.044-24.094l-48.191-48.188c-6.024-6.024-12.045-12.047-24.092-12.047-6.024 0-18.072 6.024-24.096 12.047l-433.695 451.765c-6.024 6.024-12.044 12.046-12.044 24.094s6.021 18.071 12.044 24.095l433.695 451.765c6.024 6.024 12.049 12.047 24.096 12.047 6.024 0 18.068-6.023 24.092-12.047z" />
<glyph unicode="&#xe92e;" glyph-name="ListDown" horiz-adv-x="1902" d="M1887.086 857.6l-102.4 87.77c-14.629 14.629-29.257 14.629-43.886 14.629s-29.257-0.001-43.886-14.629l-746.057-687.542-746.054 687.542c-14.629 14.629-29.263 14.629-43.892 14.629s-29.247-0.001-43.876-14.629l-102.411-87.77c-14.629-14.629-14.625-29.258-14.625-43.886s-0.004-29.257 14.625-43.886l892.339-819.199c14.629-14.629 29.264-14.63 43.893-14.63s29.264 0.001 43.893 14.63l892.336 819.199c14.629 14.629 14.629 29.257 14.629 43.886s0 29.258-14.629 43.886z" />
<glyph unicode="&#xe92f;" glyph-name="ListSmall" horiz-adv-x="1843" d="M1658.876 878.081l-81.926 61.438c-20.48 0-20.47 20.481-40.95 20.481s-20.494-0.001-40.974-20.481l-655.35-552.959-655.376 552.959c0 0-20.47 20.481-40.95 20.481s-20.47-0.001-40.95-20.481l-81.925-61.438c0 0-20.475-20.482-20.475-40.962s-0.005-20.479 20.475-40.959l757.751-655.359c20.48 0 20.494-20.482 40.974-20.482s20.47 0.002 40.95 20.482l757.75 655.359c0 0 20.5 20.479 20.5 40.959 40.96 20.48 40.956 20.482 20.476 40.962z" />
<glyph unicode="&#xe930;" glyph-name="ListUp" horiz-adv-x="1664" d="M12.797 51.201l89.609-89.6c12.8-12.8 25.591-12.8 38.391-12.8s25.605 0 38.405 12.8l652.797 691.2 652.8-691.2c12.8-12.8 25.6-12.8 38.4-12.8s25.6 0 38.4 12.8l89.6 89.6c12.8 12.8 12.8 25.6 12.8 38.4s0 25.599-12.8 38.399l-780.794 819.201c-12.8 12.8-25.606 12.799-38.406 12.799s-25.606 0.001-38.406-12.799l-780.797-819.201c-12.8-12.8-12.797-25.599-12.797-38.399s-0.003-25.6 12.797-38.4z" />
<glyph unicode="&#xe931;" glyph-name="ListView" horiz-adv-x="1352" d="M405.52-64h942.080v286.72h-942.080v-286.72zM483.344 144.896h786.432v-135.168h-786.432v135.168zM36.88-64h286.72v286.72h-286.72v-286.72zM114.705 144.896h135.165v-135.168h-135.165v135.168zM405.52 304.64h942.080v286.72h-942.080v-286.72zM483.344 513.536h786.432v-135.168h-786.432v135.168zM36.88 304.64h286.72v286.72h-286.72v-286.72zM114.705 513.536h135.165v-135.168h-135.165v135.168zM405.52 960v-286.72h942.080v286.72h-942.080zM1269.776 751.104h-786.432v135.169h786.432v-135.169zM36.88 673.28h286.72v286.72h-286.72v-286.72zM114.705 882.176h135.165v-135.169h-135.165v135.169z" />
<glyph unicode="&#xe932;" glyph-name="Location" horiz-adv-x="884" d="M795.927 783.128c-79.127 111.709-200.141 176.872-339.779 176.872-139.636 0-260.656-65.163-339.784-176.872s-97.746-256-46.545-381.673c13.964-32.582 32.584-69.818 60.511-97.745l302.545-353.745c4.655-9.309 18.617-13.964 27.926-13.964s18.617 4.655 27.926 13.964l302.545 353.745c27.927 32.582 46.55 65.164 60.514 97.745 41.891 125.673 23.268 269.964-55.859 381.673zM777.314 424.727c-9.309-27.927-27.927-51.2-46.545-79.127l-274.621-321.164-274.619 321.164c-23.273 23.273-37.236 51.2-46.545 79.127-37.236 102.4-23.272 223.418 41.892 316.509s167.564 148.946 279.273 148.946c111.711 0 218.766-55.855 279.275-148.946 65.164-93.091 79.127-209.454 41.891-316.509zM456.148 745.89c-111.709 0-200.147-88.435-200.147-200.145s88.438-200.146 200.147-200.146c111.711 0 200.143 88.436 200.143 200.146s-88.432 200.145-200.143 200.145zM456.148 420.073c-69.818 0-130.329 55.855-130.329 130.328 0 69.818 55.856 130.327 130.329 130.327 74.475 0 130.325-55.854 130.325-130.327s-60.504-130.328-130.325-130.328z" />
</font>
</defs>
</svg>
